<svg width="20" height="20" viewBox="0 0 24 24" fill="none" xmlns="http://www.w3.org/2000/svg">
<mask id="mask0_316_1804" style="mask-type:alpha" maskUnits="userSpaceOnUse" x="0" y="0" width="24" height="24">
<rect width="24" height="24" fill="#217076"/>
</mask>
<g mask="url(#mask0_316_1804)">
<path d="M3.25973 9.58266C3.1655 9.51216 3.10828 9.42403 3.08808 9.31826C3.0679 9.21249 3.09819 9.10256 3.17896 8.98846C4.21871 7.58461 5.51161 6.48942 7.05766 5.70289C8.60373 4.91634 10.2531 4.52306 12.0059 4.52306C13.7679 4.52306 15.4302 4.90223 16.9928 5.66056C18.5554 6.41889 19.8584 7.51153 20.902 8.93846C21.0059 9.06923 21.0386 9.18813 21.0001 9.29518C20.9616 9.40223 20.8956 9.49101 20.802 9.56151C20.7084 9.63203 20.6031 9.66348 20.4861 9.65586C20.3691 9.64824 20.2667 9.58346 20.179 9.46151C19.2495 8.14869 18.0608 7.14485 16.613 6.44999C15.1652 5.7551 13.6295 5.40766 12.0059 5.40766C10.3892 5.40766 8.86934 5.7583 7.44626 6.45958C6.02318 7.16087 4.84177 8.16151 3.90203 9.46151C3.80843 9.59869 3.70138 9.67241 3.58088 9.68266C3.46037 9.69293 3.35332 9.65959 3.25973 9.58266ZM14.8405 21.9269C13.1328 21.4936 11.7322 20.6357 10.6386 19.3534C9.54498 18.071 8.99818 16.5032 8.99818 14.65C8.99818 13.8295 9.29498 13.1423 9.88858 12.5885C10.4822 12.0346 11.1946 11.7577 12.0258 11.7577C12.857 11.7577 13.566 12.0346 14.1527 12.5885C14.7394 13.1423 15.0328 13.8295 15.0328 14.65C15.0328 15.2163 15.2466 15.6924 15.6741 16.0785C16.1016 16.4646 16.6061 16.6577 17.1876 16.6577C17.769 16.6577 18.2661 16.4638 18.679 16.076C19.0918 15.6881 19.2982 15.2128 19.2982 14.65C19.2982 12.7004 18.5825 11.0617 17.151 9.73393C15.7196 8.40617 14.0103 7.74229 12.0232 7.74229C10.036 7.74229 8.32927 8.40711 6.90298 9.73676C5.4767 11.0664 4.76356 12.699 4.76356 14.6346C4.76356 15.0378 4.80587 15.5418 4.89048 16.1466C4.9751 16.7514 5.15587 17.4538 5.43278 18.2538C5.47638 18.3846 5.47383 18.5003 5.42511 18.6009C5.37639 18.7016 5.29178 18.7769 5.17126 18.8269C5.05074 18.8769 4.936 18.8757 4.82703 18.8234C4.71807 18.771 4.64178 18.685 4.59818 18.5654C4.34178 17.8961 4.15781 17.2439 4.04626 16.6086C3.93473 15.9734 3.87896 15.3205 3.87896 14.65C3.87896 12.4469 4.67844 10.6 6.27741 9.10923C7.87636 7.61845 9.78599 6.87306 12.0063 6.87306C14.2432 6.87306 16.1652 7.61845 17.7722 9.10923C19.3793 10.6 20.1828 12.4469 20.1828 14.65C20.1828 15.4696 19.8926 16.154 19.3121 16.7032C18.7316 17.2523 18.0244 17.5269 17.1905 17.5269C16.3597 17.5269 15.645 17.2523 15.0463 16.7032C14.4475 16.154 14.1482 15.4696 14.1482 14.65C14.1482 14.0872 13.9393 13.6118 13.5215 13.224C13.1037 12.8362 12.6049 12.6423 12.0251 12.6423C11.4401 12.6423 10.9367 12.8353 10.5152 13.2214C10.0936 13.6075 9.88278 14.0837 9.88278 14.65C9.88278 16.2858 10.3684 17.6519 11.3395 18.748C12.3107 19.8442 13.5546 20.609 15.0713 21.0423C15.2055 21.0863 15.2968 21.1596 15.345 21.2622C15.3933 21.3649 15.4007 21.4749 15.3674 21.5922C15.3341 21.6948 15.2738 21.7846 15.1866 21.8615C15.0995 21.9384 14.9841 21.9602 14.8405 21.9269ZM6.43278 4.37691C6.33152 4.44101 6.22223 4.45543 6.10491 4.42016C5.98761 4.38491 5.90203 4.31024 5.84818 4.19614C5.79435 4.08204 5.77929 3.97563 5.80301 3.87691C5.82673 3.77819 5.89563 3.69358 6.00973 3.62306C6.93665 3.11666 7.90844 2.73173 8.92511 2.46826C9.94178 2.20479 10.9751 2.07306 12.0251 2.07306C13.0833 2.07306 14.1168 2.20223 15.1254 2.46056C16.134 2.71889 17.1096 3.08973 18.052 3.57306C18.1956 3.64999 18.2783 3.74198 18.3001 3.84903C18.3219 3.95608 18.311 4.06153 18.2674 4.16536C18.2238 4.26921 18.1485 4.34806 18.0415 4.40191C17.9344 4.45574 17.8136 4.44741 17.679 4.37691C16.802 3.90768 15.888 3.55383 14.9369 3.31536C13.9858 3.07689 13.0136 2.95766 12.0204 2.95766C11.0441 2.95766 10.086 3.07658 9.14626 3.31441C8.20651 3.55223 7.30202 3.90639 6.43278 4.37691ZM9.47896 21.5962C8.51486 20.5756 7.76871 19.5263 7.24051 18.4481C6.71229 17.3699 6.44818 16.1037 6.44818 14.6497C6.44818 13.146 6.99353 11.8798 8.08421 10.851C9.17491 9.82211 10.4887 9.30768 12.0256 9.30768C13.5624 9.30768 14.8812 9.82211 15.9818 10.851C17.0825 11.8798 17.6328 13.1461 17.6328 14.65C17.6328 14.7827 17.5922 14.8896 17.5112 14.9707C17.4301 15.0517 17.3232 15.0923 17.1905 15.0923C17.0764 15.0923 16.9741 15.0517 16.8838 14.9707C16.7934 14.8896 16.7482 14.7827 16.7482 14.65C16.7482 13.3872 16.281 12.3285 15.3465 11.474C14.412 10.6195 13.305 10.1923 12.0253 10.1923C10.7457 10.1923 9.6437 10.6195 8.71934 11.474C7.79497 12.3285 7.33278 13.3869 7.33278 14.6492C7.33278 16.0126 7.56933 17.1667 8.04241 18.1115C8.51549 19.0564 9.20203 20.0096 10.102 20.9712C10.202 21.0725 10.2472 21.1817 10.2376 21.299C10.228 21.4163 10.1828 21.5154 10.102 21.5961C10.0149 21.6833 9.91261 21.7285 9.79531 21.7317C9.67799 21.7349 9.57254 21.6897 9.47896 21.5962ZM16.9905 19.8769C15.5264 19.8769 14.2533 19.3815 13.1713 18.3906C12.0892 17.3997 11.5482 16.1528 11.5482 14.65C11.5482 14.532 11.5886 14.4288 11.6693 14.3404C11.75 14.2519 11.8564 14.2077 11.9885 14.2077C12.1206 14.2077 12.2277 14.2519 12.3097 14.3404C12.3918 14.4288 12.4328 14.532 12.4328 14.65C12.4328 15.9197 12.8876 16.9608 13.7972 17.7734C14.7068 18.586 15.7713 18.9923 16.9905 18.9923C17.1226 18.9923 17.2803 18.984 17.4636 18.9673C17.6469 18.9506 17.8354 18.9256 18.029 18.8923C18.1533 18.8654 18.26 18.883 18.3491 18.9452C18.4382 19.0074 18.4995 19.1045 18.5328 19.2366C18.5661 19.354 18.5443 19.4567 18.4674 19.5448C18.3905 19.6329 18.2918 19.6936 18.1713 19.7269C17.929 19.791 17.6985 19.832 17.4799 19.85C17.2613 19.8679 17.0982 19.8769 16.9905 19.8769Z" fill="#217076"/>
</g>
</svg>
