<svg width="32" height="32" viewBox="0 0 40 40" fill="none" xmlns="http://www.w3.org/2000/svg">
<mask id="mask0_322_2084" style="mask-type:alpha" maskUnits="userSpaceOnUse" x="0" y="0" width="40" height="40">
<rect width="40" height="40" fill="#D9D9D9"/>
</mask>
<g mask="url(#mask0_322_2084)">
<path d="M27.9679 17.4658C27.6712 17.4658 27.4226 17.3649 27.2219 17.1631C27.0213 16.9614 26.9209 16.7114 26.9209 16.4131C26.9209 16.1149 27.0213 15.8668 27.2219 15.6688C27.4226 15.4708 27.6712 15.3718 27.9679 15.3718H34.8824C35.1791 15.3718 35.4277 15.4727 35.6284 15.6744C35.829 15.8762 35.9294 16.1262 35.9294 16.4244C35.9294 16.7226 35.829 16.9708 35.6284 17.1688C35.4277 17.3668 35.1791 17.4658 34.8824 17.4658H27.9679ZM15 19.47C13.3958 19.47 12.0564 18.9327 10.9817 17.858C9.90701 16.7833 9.36967 15.4421 9.36967 13.8344C9.36967 12.2267 9.90701 10.8873 10.9817 9.81614C12.0564 8.74503 13.3958 8.20947 15 8.20947C16.6041 8.20947 17.9435 8.74503 19.0182 9.81614C20.0929 10.8873 20.6303 12.2267 20.6303 13.8344C20.6303 15.4421 20.0929 16.7833 19.0182 17.858C17.9435 18.9327 16.6041 19.47 15 19.47ZM3.80342 32.1794C3.43414 32.1794 3.12458 32.0545 2.87475 31.8046C2.62492 31.5548 2.5 31.2453 2.5 30.876V28.8354C2.5 28.0078 2.72169 27.2462 3.16508 26.5507C3.60844 25.8552 4.22721 25.3262 5.02138 24.9637C6.84543 24.1332 8.55721 23.5292 10.1567 23.1517C11.7562 22.7742 13.3689 22.5855 14.9948 22.5855C16.6208 22.5855 18.2323 22.7742 19.8295 23.1517C21.4267 23.5292 23.1374 24.1332 24.9615 24.9637C25.7556 25.3447 26.3772 25.8784 26.8263 26.5646C27.2754 27.2509 27.4999 28.0078 27.4999 28.8354V30.876C27.4999 31.2453 27.375 31.5548 27.1252 31.8046C26.8754 32.0545 26.5658 32.1794 26.1965 32.1794H3.80342ZM4.59396 30.0854H25.406V28.8354C25.406 28.4337 25.2847 28.0525 25.0422 27.6917C24.7996 27.331 24.4693 27.0448 24.0512 26.8333C22.386 26.0434 20.8485 25.4869 19.4388 25.1639C18.029 24.8409 16.5494 24.6794 15 24.6794C13.4505 24.6794 11.9663 24.8409 10.5473 25.1639C9.12829 25.4869 7.58972 26.0434 5.93158 26.8333C5.50636 27.0448 5.17712 27.331 4.94388 27.6917C4.7106 28.0525 4.59396 28.4337 4.59396 28.8354V30.0854ZM15 17.3761C15.9992 17.3761 16.8384 17.0365 17.5176 16.3574C18.1967 15.6783 18.5363 14.839 18.5363 13.8397C18.5363 12.8404 18.1967 12.0012 17.5176 11.3221C16.8384 10.643 15.9992 10.3034 15 10.3034C14.0007 10.3034 13.1615 10.643 12.4823 11.3221C11.8032 12.0012 11.4636 12.8404 11.4636 13.8397C11.4636 14.839 11.8032 15.6783 12.4823 16.3574C13.1615 17.0365 14.0007 17.3761 15 17.3761Z" fill="#CE3D37"/>
</g>
</svg>
