<svg width="20" height="20" viewBox="0 0 24 24" fill="none" xmlns="http://www.w3.org/2000/svg">
<mask id="mask0_86_4643" style="mask-type:alpha" maskUnits="userSpaceOnUse" x="0" y="0" width="24" height="24">
<rect width="24" height="24" fill="#696A6B"/>
</mask>
<g mask="url(#mask0_86_4643)">
<path d="M11.9997 18.75C11.7871 18.75 11.609 18.6781 11.4654 18.5344C11.3218 18.3906 11.25 18.2125 11.25 18V12.75H6.00001C5.78751 12.75 5.60939 12.6781 5.46566 12.5343C5.32191 12.3905 5.25003 12.2123 5.25003 11.9997C5.25003 11.7871 5.32191 11.609 5.46566 11.4654C5.60939 11.3218 5.78751 11.25 6.00001 11.25H11.25V6C11.25 5.7875 11.3219 5.60938 11.4657 5.46563C11.6095 5.32189 11.7877 5.25003 12.0003 5.25003C12.2129 5.25003 12.391 5.32189 12.5346 5.46563C12.6782 5.60938 12.75 5.7875 12.75 6V11.25H18C18.2125 11.25 18.3906 11.3219 18.5344 11.4657C18.6781 11.6095 18.75 11.7877 18.75 12.0003C18.75 12.2129 18.6781 12.391 18.5344 12.5346C18.3906 12.6782 18.2125 12.75 18 12.75H12.75V18C12.75 18.2125 12.6781 18.3906 12.5343 18.5344C12.3905 18.6781 12.2123 18.75 11.9997 18.75Z" fill="#696A6B"/>
</g>
</svg>
