<svg width="32" height="32" viewBox="0 0 40 40" fill="none" xmlns="http://www.w3.org/2000/svg">
<mask id="mask0_86_4578" style="mask-type:alpha" maskUnits="userSpaceOnUse" x="0" y="0" width="40" height="40">
<rect width="40" height="40" fill="#D9D9D9"/>
</mask>
<g mask="url(#mask0_86_4578)">
<path d="M32.8333 10.1069V29.8931C32.8333 30.6094 32.5779 31.223 32.0671 31.7338C31.5564 32.2446 30.9428 32.5 30.2265 32.5H3.77354C3.05721 32.5 2.44365 32.2446 1.93288 31.7338C1.4221 31.223 1.16671 30.6094 1.16671 29.8931V10.1069C1.16671 9.39053 1.4221 8.77698 1.93288 8.2662C2.44365 7.75542 3.05721 7.50003 3.77354 7.50003H30.2265C30.9428 7.50003 31.5564 7.75542 32.0671 8.2662C32.5779 8.77698 32.8333 9.39053 32.8333 10.1069ZM3.26067 14.1924H30.7393V10.1069C30.7393 9.97864 30.6859 9.86111 30.579 9.75428C30.4722 9.64742 30.3547 9.59399 30.2265 9.59399H3.77354C3.64532 9.59399 3.52779 9.64742 3.42096 9.75428C3.3141 9.86111 3.26067 9.97864 3.26067 10.1069V14.1924ZM3.26067 18.876V29.8931C3.26067 30.0213 3.3141 30.1389 3.42096 30.2457C3.52779 30.3526 3.64532 30.406 3.77354 30.406H30.2265C30.3547 30.406 30.4722 30.3526 30.579 30.2457C30.6859 30.1389 30.7393 30.0213 30.7393 29.8931V18.876H3.26067Z" fill="#4B4C4D"/>
</g>
</svg>
