<svg width="32" height="32" viewBox="0 0 40 40" fill="none" xmlns="http://www.w3.org/2000/svg">
<mask id="mask0_86_4578" style="mask-type:alpha" maskUnits="userSpaceOnUse" x="" y="0" width="40" height="40">
<rect width="40" height="40" fill="#D9D9D9"/>
</mask>
<g mask="url(#mask0_86_4578)">
<path d="M35.8333 10.1069V29.8931C35.8333 30.6094 35.5779 31.223 35.0671 31.7338C34.5564 32.2446 33.9428 32.5 33.2265 32.5H6.77354C6.05721 32.5 5.44365 32.2446 4.93288 31.7338C4.4221 31.223 4.16671 30.6094 4.16671 29.8931V10.1069C4.16671 9.39053 4.4221 8.77698 4.93288 8.2662C5.44365 7.75542 6.05721 7.50003 6.77354 7.50003H33.2265C33.9428 7.50003 34.5564 7.75542 35.0671 8.2662C35.5779 8.77698 35.8333 9.39053 35.8333 10.1069ZM6.26067 14.1924H33.7393V10.1069C33.7393 9.97864 33.6859 9.86111 33.579 9.75428C33.4722 9.64742 33.3547 9.59399 33.2265 9.59399H6.77354C6.64532 9.59399 6.52779 9.64742 6.42096 9.75428C6.3141 9.86111 6.26067 9.97864 6.26067 10.1069V14.1924ZM6.26067 18.876V29.8931C6.26067 30.0213 6.3141 30.1389 6.42096 30.2457C6.52779 30.3526 6.64532 30.406 6.77354 30.406H33.2265C33.3547 30.406 33.4722 30.3526 33.579 30.2457C33.6859 30.1389 33.7393 30.0213 33.7393 29.8931V18.876H6.26067Z" fill="#4B4C4D"/>
</g>
</svg>
