<svg width="20" height="20" viewBox="0 0 24 24" fill="none" xmlns="http://www.w3.org/2000/svg">
<mask id="mask0_86_4637" style="mask-type:alpha" maskUnits="userSpaceOnUse" x="0" y="0" width="24" height="24">
<rect width="24" height="24" fill="#696A6B"/>
</mask>
<g mask="url(#mask0_86_4637)">
<path d="M6 12.75C5.7875 12.75 5.60938 12.6781 5.46565 12.5343C5.3219 12.3905 5.25002 12.2123 5.25002 11.9997C5.25002 11.7871 5.3219 11.609 5.46565 11.4654C5.60938 11.3218 5.7875 11.25 6 11.25H18C18.2125 11.25 18.3906 11.3219 18.5344 11.4657C18.6781 11.6095 18.75 11.7877 18.75 12.0003C18.75 12.2129 18.6781 12.391 18.5344 12.5346C18.3906 12.6782 18.2125 12.75 18 12.75H6Z" fill="#696A6B"/>
</g>
</svg>
