<svg width="20" height="20" viewBox="0 0 20 20" fill="none" xmlns="http://www.w3.org/2000/svg">
<mask id="mask0_118_8671" style="mask-type:alpha" maskUnits="userSpaceOnUse" x="0" y="0" width="20" height="20">
<rect width="20" height="20" fill="#D9D9D9"/>
</mask>
<g mask="url(#mask0_118_8671)">
<path d="M5.15225 17.0833C4.70839 17.0833 4.33247 16.9293 4.02448 16.6213C3.71649 16.3133 3.5625 15.9374 3.5625 15.4936V5.12499H3.35417C3.17682 5.12499 3.02137 5.05822 2.88783 4.92468C2.75428 4.79114 2.6875 4.6357 2.6875 4.45835C2.6875 4.281 2.75428 4.12556 2.88783 3.99201C3.02137 3.85846 3.17815 3.79168 3.35817 3.79168H6.52081C6.52081 3.58229 6.60094 3.40014 6.76119 3.24522C6.92145 3.09031 7.10628 3.01285 7.31569 3.01285H10.6634C10.8728 3.01285 11.0577 3.09031 11.2179 3.24522C11.3782 3.40014 11.4583 3.58229 11.4583 3.79168H14.621C14.801 3.79168 14.9577 3.85846 15.0913 3.99201C15.2248 4.12556 15.2916 4.281 15.2916 4.45835C15.2916 4.6357 15.2248 4.79114 15.0913 4.92468C14.9577 5.05822 14.8023 5.12499 14.625 5.12499H14.4166V15.4936C14.4166 15.9374 14.2626 16.3133 13.9546 16.6213C13.6467 16.9293 13.2707 17.0833 12.8269 17.0833H5.15225ZM4.89581 5.12499V15.4936C4.89581 15.5683 4.91985 15.6298 4.96794 15.6779C5.01602 15.726 5.07746 15.75 5.15225 15.75H12.8269C12.9017 15.75 12.9631 15.726 13.0112 15.6779C13.0593 15.6298 13.0833 15.5683 13.0833 15.4936V5.12499H4.89581ZM6.79488 13.3333C6.79488 13.5107 6.86165 13.6661 6.99519 13.7997C7.12873 13.9332 7.28417 14 7.46152 14C7.63887 14 7.79431 13.9332 7.92785 13.7997C8.06141 13.6661 8.12819 13.5107 8.12819 13.3333V7.54164C8.12819 7.36429 8.06141 7.20885 7.92785 7.07531C7.79431 6.94176 7.63887 6.87499 7.46152 6.87499C7.28417 6.87499 7.12873 6.94176 6.99519 7.07531C6.86165 7.20885 6.79488 7.36429 6.79488 7.54164V13.3333ZM9.85094 13.3333C9.85094 13.5107 9.91771 13.6661 10.0513 13.7997C10.1848 13.9332 10.3403 14 10.5176 14C10.695 14 10.8504 13.9332 10.9839 13.7997C11.1175 13.6661 11.1842 13.5107 11.1842 13.3333V7.54164C11.1842 7.36429 11.1175 7.20885 10.9839 7.07531C10.8504 6.94176 10.695 6.87499 10.5176 6.87499C10.3403 6.87499 10.1848 6.94176 10.0513 7.07531C9.91771 7.20885 9.85094 7.36429 9.85094 7.54164V13.3333ZM4.89581 5.12499V15.4936C4.89581 15.5683 4.91985 15.6298 4.96794 15.6779C5.01602 15.726 5.07746 15.75 5.15225 15.75H4.89581V5.12499Z" fill="#4B4C4D"/>
</g>
</svg>
