<svg width="32" height="32" viewBox="0 0 40 40" fill="none" xmlns="http://www.w3.org/2000/svg">
<mask id="mask0_115_1492" style="mask-type:alpha" maskUnits="userSpaceOnUse" x="0" y="0" width="40" height="40">
<rect width="40" height="40" fill="#D9D9D9"/>
</mask>
<g mask="url(#mask0_115_1492)">
<path d="M29.6239 27.6068V31.3184C29.6239 31.505 29.6929 31.6613 29.8309 31.7874C29.9688 31.9134 30.1298 31.9765 30.3138 31.9765C30.4892 31.9765 30.6403 31.9075 30.767 31.7697C30.8938 31.6318 30.9572 31.4756 30.9572 31.3013V27.6068H34.6795C34.8575 27.6068 35.0099 27.5375 35.1367 27.3988C35.2635 27.2601 35.3269 27.1013 35.3269 26.9223C35.3269 26.7433 35.2635 26.5904 35.1367 26.4637C35.0099 26.3369 34.8575 26.2735 34.6795 26.2735H30.9572V22.5619C30.9572 22.3753 30.8938 22.219 30.767 22.0929C30.6403 21.9669 30.4874 21.9039 30.3084 21.9039C30.1294 21.9039 29.9706 21.9669 29.8319 22.0929C29.6932 22.219 29.6239 22.3753 29.6239 22.5619V26.2735H25.9123C25.7343 26.2735 25.5801 26.3365 25.4497 26.4626C25.3194 26.5887 25.2543 26.7437 25.2543 26.9277C25.2543 27.1031 25.3228 27.2601 25.46 27.3988C25.5972 27.5375 25.7572 27.6068 25.9401 27.6068H29.6239ZM30.2562 34.1666C28.2518 34.1666 26.5435 33.4576 25.1312 32.0395C23.719 30.6214 23.0128 28.9188 23.0128 26.9316C23.0128 24.9113 23.7189 23.193 25.1309 21.7765C26.543 20.36 28.256 19.6518 30.27 19.6518C32.2652 19.6518 33.9718 20.36 35.3899 21.7765C36.808 23.193 37.517 24.9113 37.517 26.9316C37.517 28.9188 36.808 30.6214 35.3899 32.0395C33.9718 33.4576 32.2606 34.1666 30.2562 34.1666ZM10.1068 30.8333C9.39547 30.8333 8.78317 30.5766 8.26992 30.0634C7.75664 29.5501 7.5 28.9378 7.5 28.2264V13.3867C7.5 12.9692 7.5906 12.5775 7.77179 12.2116C7.95296 11.8457 8.21136 11.5429 8.547 11.3034L18.4401 3.84619C18.8895 3.49719 19.4071 3.32269 19.993 3.32269C20.5788 3.32269 21.1011 3.49719 21.5598 3.84619L31.4529 11.3034C31.7886 11.5429 32.047 11.8457 32.2281 12.2116C32.4093 12.5775 32.4999 12.9692 32.4999 13.3867V16.3729C32.1716 16.271 31.8317 16.2001 31.4804 16.1602C31.1291 16.1204 30.7709 16.0947 30.406 16.0833V13.1303L20.3045 5.52886C20.219 5.46119 20.1175 5.42736 20 5.42736C19.8824 5.42736 19.7809 5.46119 19.6955 5.52886L9.59396 13.1268V28.2264C9.59396 28.376 9.64204 28.4989 9.73821 28.5951C9.83437 28.6912 9.95725 28.7393 10.1068 28.7393H19.6036C19.6555 29.1025 19.7369 29.4612 19.8478 29.8152C19.9587 30.1693 20.0881 30.5087 20.2361 30.8333H10.1068Z" fill="#FBFDFF"/>
</g>
</svg>
