<svg width="32" height="32" viewBox="0 0 40 40" fill="none" xmlns="http://www.w3.org/2000/svg">
<mask id="mask0_112_1431" style="mask-type:alpha" maskUnits="userSpaceOnUse" x="0" y="0" width="40" height="40">
<rect width="40" height="40" fill="#FBFDFF"/>
</mask>
<g mask="url(#mask0_112_1431)">
<path d="M15.8376 28.7778C15.6595 28.7778 15.4971 28.7468 15.3504 28.6848C15.2036 28.6228 15.0615 28.5231 14.9241 28.3857L7.77985 21.2522C7.56833 21.0406 7.46399 20.786 7.46685 20.4883C7.46969 20.1906 7.57688 19.9359 7.78844 19.7244C7.99997 19.52 8.24567 19.4178 8.52556 19.4178C8.80548 19.4178 9.0512 19.52 9.26273 19.7244L15.8376 26.3099L30.7201 11.4167C30.9316 11.2123 31.1816 11.1101 31.47 11.1101C31.7585 11.1101 32.0085 11.2123 32.22 11.4167C32.4315 11.6283 32.5373 11.8782 32.5373 12.1667C32.5373 12.4551 32.4315 12.7051 32.22 12.9167L16.751 28.3857C16.6135 28.5231 16.4697 28.6228 16.3194 28.6848C16.1691 28.7468 16.0085 28.7778 15.8376 28.7778Z" fill="#FBFDFF"/>
</g>
</svg>
