<svg width="20" height="20" viewBox="0 0 20 20" fill="none" xmlns="http://www.w3.org/2000/svg">
<mask id="mask0_118_8671" style="mask-type:alpha" maskUnits="userSpaceOnUse" x="0" y="0" width="20" height="20">
<rect width="20" height="20" fill="#D9D9D9"/>
</mask>
<g mask="url(#mask0_118_8671)">
<path d="M3.15225 17.0833C2.70839 17.0833 2.33247 16.9293 2.02448 16.6213C1.71649 16.3133 1.5625 15.9374 1.5625 15.4936V5.12499H1.35417C1.17682 5.12499 1.02137 5.05822 0.887833 4.92468C0.754278 4.79114 0.6875 4.6357 0.6875 4.45835C0.6875 4.281 0.754278 4.12556 0.887833 3.99201C1.02137 3.85846 1.17815 3.79168 1.35817 3.79168H4.52081C4.52081 3.58229 4.60094 3.40014 4.76119 3.24522C4.92145 3.09031 5.10628 3.01285 5.31569 3.01285H8.66344C8.87284 3.01285 9.05767 3.09031 9.21794 3.24522C9.37819 3.40014 9.45831 3.58229 9.45831 3.79168H12.621C12.801 3.79168 12.9577 3.85846 13.0913 3.99201C13.2248 4.12556 13.2916 4.281 13.2916 4.45835C13.2916 4.6357 13.2248 4.79114 13.0913 4.92468C12.9577 5.05822 12.8023 5.12499 12.625 5.12499H12.4166V15.4936C12.4166 15.9374 12.2626 16.3133 11.9546 16.6213C11.6467 16.9293 11.2707 17.0833 10.8269 17.0833H3.15225ZM2.89581 5.12499V15.4936C2.89581 15.5683 2.91985 15.6298 2.96794 15.6779C3.01602 15.726 3.07746 15.75 3.15225 15.75H10.8269C10.9017 15.75 10.9631 15.726 11.0112 15.6779C11.0593 15.6298 11.0833 15.5683 11.0833 15.4936V5.12499H2.89581ZM4.79488 13.3333C4.79488 13.5107 4.86165 13.6661 4.99519 13.7997C5.12873 13.9332 5.28417 14 5.46152 14C5.63887 14 5.79431 13.9332 5.92785 13.7997C6.06141 13.6661 6.12819 13.5107 6.12819 13.3333V7.54164C6.12819 7.36429 6.06141 7.20885 5.92785 7.07531C5.79431 6.94176 5.63887 6.87499 5.46152 6.87499C5.28417 6.87499 5.12873 6.94176 4.99519 7.07531C4.86165 7.20885 4.79488 7.36429 4.79488 7.54164V13.3333ZM7.85094 13.3333C7.85094 13.5107 7.91771 13.6661 8.05127 13.7997C8.18481 13.9332 8.34026 14 8.5176 14C8.69495 14 8.8504 13.9332 8.98394 13.7997C9.11748 13.6661 9.18425 13.5107 9.18425 13.3333V7.54164C9.18425 7.36429 9.11748 7.20885 8.98394 7.07531C8.8504 6.94176 8.69495 6.87499 8.5176 6.87499C8.34026 6.87499 8.18481 6.94176 8.05127 7.07531C7.91771 7.20885 7.85094 7.36429 7.85094 7.54164V13.3333ZM2.89581 5.12499V15.4936C2.89581 15.5683 2.91985 15.6298 2.96794 15.6779C3.01602 15.726 3.07746 15.75 3.15225 15.75H2.89581V5.12499Z" fill="#4B4C4D"/>
</g>
</svg>
