<svg width="16" height="16" viewBox="0 0 16 16" fill="none" xmlns="http://www.w3.org/2000/svg">
<path d="M1.75674 15.7288C1.38163 15.7288 1.06456 15.5993 0.805534 15.3402C0.546506 15.0812 0.416992 14.7641 0.416992 14.389V3.9019C0.416992 3.52679 0.546506 3.20972 0.805534 2.9507C1.06456 2.69167 1.38163 2.56215 1.75674 2.56215H7.95703L6.87372 3.64547H1.75674C1.69263 3.64547 1.63386 3.67217 1.58043 3.72559C1.52701 3.77902 1.5003 3.83779 1.5003 3.9019V14.389C1.5003 14.4531 1.52701 14.5119 1.58043 14.5653C1.63386 14.6188 1.69263 14.6455 1.75674 14.6455H12.2439C12.308 14.6455 12.3667 14.6188 12.4202 14.5653C12.4736 14.5119 12.5003 14.4531 12.5003 14.389V9.32172L13.5836 8.21759V14.389C13.5836 14.7641 13.4541 15.0812 13.1951 15.3402C12.936 15.5993 12.619 15.7288 12.2439 15.7288H1.75674ZM10.9218 2.62144L11.7167 3.4163L6.5003 8.58297V9.64547H7.5628L12.7663 4.4788L13.5035 5.2448L8.37689 10.3794C8.25082 10.5055 8.11388 10.5952 7.96608 10.6486C7.81828 10.7021 7.66385 10.7288 7.50278 10.7288H6.09066C5.90117 10.7288 5.74153 10.6649 5.61172 10.5372C5.4819 10.4095 5.41699 10.25 5.41699 10.0589V8.66322C5.41699 8.50395 5.44836 8.3472 5.5111 8.19297C5.57383 8.03874 5.66159 7.90433 5.77437 7.78972L8.34809 5.20558L10.9218 2.62144ZM13.5035 5.2448L10.9218 2.62144L12.5163 1.0269C12.772 0.772639 13.0829 0.645508 13.4492 0.645508C13.8155 0.645508 14.1285 0.775313 14.3881 1.03492L15.1136 1.7499C15.3767 2.01468 15.5083 2.33036 15.5083 2.69695C15.5083 3.06351 15.3758 3.37701 15.1108 3.63744L13.5035 5.2448Z" fill="#4B4C4D"/>
</svg>
