<svg width="32" height="32" viewBox="0 0 40 40" fill="none" xmlns="http://www.w3.org/2000/svg">
<mask id="mask0_226_2514" style="mask-type:alpha" maskUnits="userSpaceOnUse" x="0" y="0" width="40" height="40">
<rect width="40" height="40" fill="#D9D9D9"/>
</mask>
<g mask="url(#mask0_226_2514)">
<path d="M10.1068 35.8333C9.39281 35.8333 8.77983 35.5774 8.26792 35.0654C7.75597 34.5535 7.5 33.9405 7.5 33.2265V16.8975C7.5 16.178 7.75597 15.5636 8.26792 15.0545C8.77983 14.5453 9.39281 14.2907 10.1068 14.2907H12.703V10.6305C12.703 8.60543 13.4133 6.88301 14.8338 5.4632C16.2543 4.0434 17.9776 3.3335 20.0036 3.3335C22.0297 3.3335 23.7517 4.0434 25.1698 5.4632C26.5879 6.88301 27.2969 8.60543 27.2969 10.6305V14.2907H29.8931C30.6071 14.2907 31.2201 14.5453 31.732 15.0545C32.2439 15.5636 32.4999 16.178 32.4999 16.8975V33.2265C32.4999 33.9405 32.2439 34.5535 31.732 35.0654C31.2201 35.5774 30.6071 35.8333 29.8931 35.8333H10.1068ZM10.1068 33.7394H29.8931C30.0427 33.7394 30.1655 33.6913 30.2617 33.5951C30.3579 33.499 30.406 33.3761 30.406 33.2265V16.8975C30.406 16.7479 30.3579 16.6251 30.2617 16.5289C30.1655 16.4327 30.0427 16.3847 29.8931 16.3847H10.1068C9.95725 16.3847 9.83437 16.4327 9.73821 16.5289C9.64204 16.6251 9.59396 16.7479 9.59396 16.8975V33.2265C9.59396 33.3761 9.64204 33.499 9.73821 33.5951C9.83437 33.6913 9.95725 33.7394 10.1068 33.7394ZM20.0046 27.9167C20.7928 27.9167 21.4649 27.6413 22.0208 27.0905C22.5767 26.5397 22.8546 25.875 22.8546 25.0962C22.8546 24.3348 22.5751 23.663 22.0161 23.0807C21.4571 22.4985 20.7835 22.2073 19.9953 22.2073C19.2071 22.2073 18.5351 22.4985 17.9792 23.0807C17.4233 23.663 17.1453 24.3394 17.1453 25.1101C17.1453 25.8807 17.4248 26.5412 17.9838 27.0914C18.5428 27.6416 19.2164 27.9167 20.0046 27.9167ZM14.797 14.2907H25.203V10.6305C25.203 9.18518 24.6975 7.95669 23.6865 6.945C22.6756 5.9333 21.448 5.42745 20.0039 5.42745C18.5597 5.42745 17.3308 5.9333 16.3172 6.945C15.3037 7.95669 14.797 9.18518 14.797 10.6305V14.2907Z" fill="#406FA1"/>
</g>
</svg>
