<svg width="25" height="25" viewBox="0 0 25 25" fill="none" xmlns="http://www.w3.org/2000/svg">
<mask id="mask0_411_1499" style="mask-type:alpha" maskUnits="userSpaceOnUse" x="0" y="0" width="25" height="25">
<rect x="0.84082" y="0.546387" width="24" height="24" fill="#D9D9D9"/>
</mask>
<g mask="url(#mask0_411_1499)">
<path d="M16.4639 16.5233C16.319 16.3579 16.2466 16.1746 16.2466 15.9733C16.2466 15.772 16.319 15.5989 16.4639 15.4541L18.3716 13.5464H10.7062C10.4934 13.5464 10.3152 13.4746 10.1716 13.331C10.028 13.1874 9.95621 13.0092 9.95621 12.7964C9.95621 12.5836 10.028 12.4054 10.1716 12.2618C10.3152 12.1182 10.4934 12.0464 10.7062 12.0464H18.3716L16.4543 10.1291C16.3056 9.98037 16.2312 9.80538 16.2312 9.60411C16.2312 9.40283 16.3088 9.22462 16.4639 9.06949C16.6088 8.91437 16.7819 8.83681 16.9831 8.83681C17.1844 8.83681 17.3575 8.90925 17.5023 9.05411L20.6119 12.1637C20.7055 12.2573 20.7715 12.356 20.81 12.4598C20.8485 12.5637 20.8677 12.6759 20.8677 12.7964C20.8677 12.9169 20.8485 13.0291 20.81 13.1329C20.7715 13.2368 20.7055 13.3355 20.6119 13.4291L17.4927 16.5483C17.3338 16.7072 17.1588 16.779 16.9677 16.7636C16.7767 16.7483 16.6088 16.6681 16.4639 16.5233ZM6.24469 21.5464C5.73957 21.5464 5.31201 21.3714 4.96201 21.0214C4.61201 20.6714 4.43701 20.2438 4.43701 19.7387V5.85409C4.43701 5.34895 4.61201 4.92139 4.96201 4.57139C5.31201 4.22139 5.73957 4.04639 6.24469 4.04639H12.2062C12.419 4.04639 12.5972 4.11819 12.7408 4.26179C12.8844 4.40537 12.9562 4.58357 12.9562 4.79639C12.9562 5.0092 12.8844 5.1874 12.7408 5.33099C12.5972 5.47457 12.419 5.54636 12.2062 5.54636H6.24469C6.16775 5.54636 6.09724 5.57841 6.03314 5.64251C5.96902 5.70663 5.93696 5.77715 5.93696 5.85409V19.7387C5.93696 19.8156 5.96902 19.8861 6.03314 19.9502C6.09724 20.0143 6.16775 20.0464 6.24469 20.0464H12.2062C12.419 20.0464 12.5972 20.1182 12.7408 20.2618C12.8844 20.4054 12.9562 20.5836 12.9562 20.7964C12.9562 21.0092 12.8844 21.1874 12.7408 21.331C12.5972 21.4746 12.419 21.5464 12.2062 21.5464H6.24469Z" fill="#0F0F0F"/>
</g>
</svg>
