<svg width="32" height="32" viewBox="0 0 40 40" fill="none" xmlns="http://www.w3.org/2000/svg">
<mask id="mask0_226_2125" style="mask-type:alpha" maskUnits="userSpaceOnUse" x="0" y="0" width="40" height="40">
<rect width="40" height="40" fill="#D9D9D9"/>
</mask>
<g mask="url(#mask0_226_2125)">
<path d="M6.60683 32.9999C5.8905 32.9999 5.27694 32.7445 4.76617 32.2337C4.25539 31.723 4 31.1094 4 30.3931V10.6068C4 9.8905 4.25539 9.27694 4.76617 8.76617C5.27694 8.25539 5.8905 8 6.60683 8H33.0598C33.7761 8 34.3896 8.25539 34.9004 8.76617C35.4112 9.27694 35.6666 9.8905 35.6666 10.6068V30.3931C35.6666 31.1094 35.4112 31.723 34.9004 32.2337C34.3896 32.7445 33.7761 32.9999 33.0598 32.9999H6.60683ZM33.5726 11.9849L20.548 20.5138C20.4312 20.575 20.3158 20.6265 20.2019 20.6682C20.0879 20.7098 19.9651 20.7307 19.8333 20.7307C19.7015 20.7307 19.5787 20.7098 19.4647 20.6682C19.3507 20.6265 19.2389 20.575 19.1292 20.5138L6.09396 11.9849V30.3931C6.09396 30.5427 6.14204 30.6655 6.23821 30.7617C6.33438 30.8579 6.45725 30.906 6.60683 30.906H33.0598C33.2093 30.906 33.3322 30.8579 33.4284 30.7617C33.5245 30.6655 33.5726 30.5427 33.5726 30.3931V11.9849ZM19.8333 18.7884L33.2371 10.094H6.45725L19.8333 18.7884ZM6.09396 12.3183V10.8105V10.8549V10.094V10.8407V10.7871V12.3183Z" fill="#406FA1"/>
</g>
</svg>
