<svg width="32" height="32" viewBox="0 0 40 40" fill="none" xmlns="http://www.w3.org/2000/svg">
<mask id="mask0_226_1717" style="mask-type:alpha" maskUnits="userSpaceOnUse" x="0" y="0" width="40" height="40">
<rect width="40" height="40" fill="#D9D9D9"/>
</mask>
<g mask="url(#mask0_226_1717)">
<path d="M8.44033 34.1666C7.724 34.1666 7.11044 33.9112 6.59966 33.4005C6.08888 32.8897 5.8335 32.2761 5.8335 31.5598V8.44021C5.8335 7.72387 6.08888 7.11032 6.59966 6.59954C7.11044 6.08876 7.724 5.83337 8.44033 5.83337H26.9542C27.3114 5.83337 27.6527 5.90389 27.978 6.04492C28.3033 6.18594 28.582 6.37255 28.8142 6.60475L33.3954 11.1859C33.6276 11.4181 33.8142 11.6969 33.9552 12.0222C34.0962 12.3475 34.1667 12.6887 34.1667 13.046V31.5598C34.1667 32.2761 33.9114 32.8897 33.4006 33.4005C32.8898 33.9112 32.2762 34.1666 31.5599 34.1666H8.44033ZM32.0728 12.8803L27.1198 7.92733H8.44033C8.29075 7.92733 8.16787 7.97541 8.0717 8.07158C7.97554 8.16775 7.92745 8.29062 7.92745 8.44021V31.5598C7.92745 31.7094 7.97554 31.8323 8.0717 31.9284C8.16787 32.0246 8.29075 32.0727 8.44033 32.0727H31.5599C31.7095 32.0727 31.8324 32.0246 31.9285 31.9284C32.0247 31.8323 32.0728 31.7094 32.0728 31.5598V12.8803ZM19.9936 28.6751C21.0548 28.6751 21.9611 28.3016 22.7126 27.5545C23.4641 26.8073 23.8398 25.9032 23.8398 24.842C23.8398 23.7808 23.4662 22.8744 22.7191 22.123C21.972 21.3715 21.0679 20.9957 20.0067 20.9957C18.9455 20.9957 18.0391 21.3693 17.2877 22.1164C16.5362 22.8636 16.1605 23.7677 16.1605 24.8289C16.1605 25.8901 16.534 26.7964 17.2811 27.5479C18.0282 28.2994 18.9324 28.6751 19.9936 28.6751ZM11.8036 15.9893H22.8377C23.2097 15.9893 23.5199 15.8633 23.7684 15.6114C24.0168 15.3594 24.1411 15.0509 24.1411 14.6859V11.8035C24.1411 11.4315 24.0168 11.1213 23.7684 10.8728C23.5199 10.6243 23.2097 10.5 22.8377 10.5H11.8036C11.4316 10.5 11.1214 10.6243 10.8729 10.8728C10.6244 11.1213 10.5002 11.4315 10.5002 11.8035V14.6859C10.5002 15.0509 10.6244 15.3594 10.8729 15.6114C11.1214 15.8633 11.4316 15.9893 11.8036 15.9893Z" fill="#FBFDFF"/>
</g>
</svg>
