<svg width="24" height="24" viewBox="0 0 32 32" fill="none" xmlns="http://www.w3.org/2000/svg">
<mask id="mask0_370_5865" style="mask-type:alpha" maskUnits="userSpaceOnUse" x="0" y="0" width="32" height="32">
<rect width="32" height="32" fill="#D9D9D9"/>
</mask>
<g mask="url(#mask0_370_5865)">
<path d="M9.75127 27.9152C9.48631 27.6502 9.35384 27.3348 9.35384 26.969C9.35384 26.6032 9.48631 26.2879 9.75127 26.0229L19.7744 15.9998L9.71794 5.94337C9.46665 5.69211 9.341 5.38442 9.341 5.0203C9.341 4.65622 9.47776 4.33743 9.75127 4.06394C10.0162 3.79898 10.3316 3.6665 10.6974 3.6665C11.0632 3.6665 11.3786 3.79898 11.6435 4.06394L22.7153 15.1562C22.8401 15.281 22.9281 15.4126 22.9794 15.5511C23.0307 15.6896 23.0563 15.8391 23.0563 15.9998C23.0563 16.1605 23.0307 16.3101 22.9794 16.4485C22.9281 16.587 22.8401 16.7186 22.7153 16.8434L11.6102 27.9485C11.3589 28.1998 11.0547 28.3254 10.6974 28.3254C10.3401 28.3254 10.0248 28.1887 9.75127 27.9152Z" fill="#FBFDFF"/>
</g>
</svg>
