<svg width="20" height="20" viewBox="0 0 20 20" fill="none" xmlns="http://www.w3.org/2000/svg">
<mask id="mask0_378_2663" style="mask-type:alpha" maskUnits="userSpaceOnUse" x="0" y="0" width="20" height="20">
<rect width="20" height="20" fill="#D9D9D9"/>
</mask>
<g mask="url(#mask0_378_2663)">
<path d="M6.15225 17.0832C5.70839 17.0832 5.33247 16.9292 5.02448 16.6212C4.71649 16.3132 4.5625 15.9373 4.5625 15.4934V5.12484H4.35417C4.17682 5.12484 4.02137 5.05807 3.88783 4.92453C3.75428 4.79099 3.6875 4.63554 3.6875 4.45819C3.6875 4.28085 3.75428 4.1254 3.88783 3.99186C4.02137 3.85831 4.17815 3.79153 4.35817 3.79153H7.52081C7.52081 3.58214 7.60094 3.39999 7.76119 3.24507C7.92145 3.09015 8.10628 3.0127 8.31569 3.0127H11.6634C11.8728 3.0127 12.0577 3.09015 12.2179 3.24507C12.3782 3.39999 12.4583 3.58214 12.4583 3.79153H15.621C15.801 3.79153 15.9577 3.85831 16.0913 3.99186C16.2248 4.1254 16.2916 4.28085 16.2916 4.45819C16.2916 4.63554 16.2248 4.79099 16.0913 4.92453C15.9577 5.05807 15.8023 5.12484 15.625 5.12484H15.4166V15.4934C15.4166 15.9373 15.2626 16.3132 14.9546 16.6212C14.6467 16.9292 14.2707 17.0832 13.8269 17.0832H6.15225ZM5.89581 5.12484V15.4934C5.89581 15.5682 5.91985 15.6296 5.96794 15.6777C6.01602 15.7258 6.07746 15.7498 6.15225 15.7498H13.8269C13.9017 15.7498 13.9631 15.7258 14.0112 15.6777C14.0593 15.6296 14.0833 15.5682 14.0833 15.4934V5.12484H5.89581ZM5.89581 5.12484V15.4934C5.89581 15.5682 5.91985 15.6296 5.96794 15.6777C6.01602 15.7258 6.07746 15.7498 6.15225 15.7498H5.89581V5.12484ZM9.99998 11.3989L11.6651 13.0639C11.8017 13.1932 11.9604 13.2578 12.141 13.2578C12.3215 13.2578 12.4695 13.1932 12.5849 13.0639C12.7142 12.9347 12.7823 12.7779 12.7892 12.5936C12.7962 12.4093 12.7281 12.2525 12.5849 12.1233L10.9198 10.4582L12.6114 8.76659C12.7369 8.64111 12.7996 8.48929 12.7996 8.31113C12.7996 8.13299 12.7281 7.98009 12.5849 7.85242C12.4572 7.72315 12.3043 7.65851 12.1262 7.65851C11.948 7.65851 11.7943 7.72315 11.6651 7.85242L9.99998 9.51749L8.31406 7.85242C8.19174 7.72315 8.04017 7.65851 7.85935 7.65851C7.67853 7.65851 7.52349 7.72315 7.39423 7.85242C7.26495 7.97474 7.20031 8.12631 7.20031 8.30713C7.20031 8.48795 7.26495 8.64994 7.39423 8.79309L9.05929 10.4582L7.3734 12.1441C7.23877 12.2787 7.17493 12.4333 7.18187 12.608C7.18882 12.7827 7.2593 12.9347 7.39331 13.0639C7.53708 13.1847 7.69283 13.245 7.86056 13.245C8.02829 13.245 8.17945 13.1847 8.31406 13.0639L9.99998 11.3989Z" fill="#7A100B"/>
</g>
</svg>
