<svg width="70" height="28" viewBox="0 0 70 28" fill="none" xmlns="http://www.w3.org/2000/svg">
<path d="M1.708 27C1.492 27 1.3 26.94 1.132 26.82C0.964 26.676 0.88 26.484 0.88 26.244V1.404C0.88 1.164 0.964 0.983999 1.132 0.864C1.324 0.744 1.54 0.684 1.78 0.684C1.996 0.684 2.2 0.744 2.392 0.864C2.584 0.983999 2.68 1.164 2.68 1.404V25.272H13.3C13.516 25.272 13.672 25.368 13.768 25.56C13.888 25.728 13.948 25.92 13.948 26.136C13.948 26.352 13.888 26.556 13.768 26.748C13.672 26.916 13.516 27 13.3 27H1.708ZM23.5077 27.216C22.1637 27.216 20.9397 26.964 19.8357 26.46C18.7557 25.956 17.8917 25.164 17.2437 24.084C16.6197 22.98 16.3077 21.516 16.3077 19.692V8.208C16.3077 6.384 16.6197 4.932 17.2437 3.852C17.8917 2.748 18.7557 1.944 19.8357 1.44C20.9397 0.935999 22.1637 0.684 23.5077 0.684C24.8757 0.684 26.1117 0.935999 27.2157 1.44C28.3197 1.944 29.1837 2.748 29.8077 3.852C30.4557 4.932 30.7797 6.384 30.7797 8.208V19.692C30.7797 21.516 30.4557 22.98 29.8077 24.084C29.1837 25.164 28.3197 25.956 27.2157 26.46C26.1117 26.964 24.8757 27.216 23.5077 27.216ZM23.5077 25.488C25.2117 25.488 26.5437 25.02 27.5037 24.084C28.4877 23.124 28.9797 21.66 28.9797 19.692V8.208C28.9797 6.24 28.4997 4.788 27.5397 3.852C26.5797 2.892 25.2357 2.412 23.5077 2.412C21.8037 2.412 20.4717 2.892 19.5117 3.852C18.5517 4.788 18.0717 6.24 18.0717 8.208V19.692C18.0717 21.66 18.5517 23.124 19.5117 24.084C20.4717 25.02 21.8037 25.488 23.5077 25.488ZM43.2303 27.216C41.8863 27.216 40.6623 26.964 39.5583 26.46C38.4783 25.956 37.6143 25.164 36.9663 24.084C36.3423 22.98 36.0303 21.516 36.0303 19.692V8.208C36.0303 6.384 36.3423 4.932 36.9663 3.852C37.6143 2.748 38.4783 1.944 39.5583 1.44C40.6623 0.935999 41.8863 0.684 43.2303 0.684C44.7423 0.684 46.0383 0.947999 47.1183 1.476C48.1983 2.004 49.0263 2.736 49.6023 3.672C50.2023 4.584 50.5023 5.616 50.5023 6.768C50.5023 7.104 50.4183 7.344 50.2503 7.488C50.0823 7.632 49.8663 7.704 49.6023 7.704C49.3623 7.704 49.1583 7.644 48.9903 7.524C48.8223 7.404 48.7263 7.212 48.7023 6.948C48.5823 5.94 48.2943 5.1 47.8383 4.428C47.3823 3.756 46.7583 3.252 45.9663 2.916C45.1983 2.58 44.2863 2.412 43.2303 2.412C41.5263 2.412 40.1943 2.892 39.2343 3.852C38.2743 4.788 37.7943 6.24 37.7943 8.208V19.692C37.7943 21.66 38.2743 23.124 39.2343 24.084C40.1943 25.02 41.5263 25.488 43.2303 25.488C44.9343 25.488 46.2663 25.02 47.2263 24.084C48.2103 23.124 48.7023 21.66 48.7023 19.692V14.832H43.4103C43.1703 14.832 42.9783 14.748 42.8343 14.58C42.7143 14.412 42.6543 14.22 42.6543 14.004C42.6543 13.788 42.7143 13.596 42.8343 13.428C42.9783 13.26 43.1703 13.176 43.4103 13.176H49.7823C49.9983 13.176 50.1663 13.26 50.2863 13.428C50.4303 13.572 50.5023 13.752 50.5023 13.968V19.692C50.5023 21.516 50.1783 22.98 49.5303 24.084C48.9063 25.164 48.0423 25.956 46.9383 26.46C45.8343 26.964 44.5983 27.216 43.2303 27.216ZM62.5311 27.216C61.1871 27.216 59.9631 26.964 58.8591 26.46C57.7791 25.956 56.9151 25.164 56.2671 24.084C55.6431 22.98 55.3311 21.516 55.3311 19.692V8.208C55.3311 6.384 55.6431 4.932 56.2671 3.852C56.9151 2.748 57.7791 1.944 58.8591 1.44C59.9631 0.935999 61.1871 0.684 62.5311 0.684C63.8991 0.684 65.1351 0.935999 66.2391 1.44C67.3431 1.944 68.2071 2.748 68.8311 3.852C69.4791 4.932 69.8031 6.384 69.8031 8.208V19.692C69.8031 21.516 69.4791 22.98 68.8311 24.084C68.2071 25.164 67.3431 25.956 66.2391 26.46C65.1351 26.964 63.8991 27.216 62.5311 27.216ZM62.5311 25.488C64.2351 25.488 65.5671 25.02 66.5271 24.084C67.5111 23.124 68.0031 21.66 68.0031 19.692V8.208C68.0031 6.24 67.5231 4.788 66.5631 3.852C65.6031 2.892 64.2591 2.412 62.5311 2.412C60.8271 2.412 59.4951 2.892 58.5351 3.852C57.5751 4.788 57.0951 6.24 57.0951 8.208V19.692C57.0951 21.66 57.5751 23.124 58.5351 24.084C59.4951 25.02 60.8271 25.488 62.5311 25.488Z" fill="#FBFDFF"/>
</svg>
