<svg width="93" height="37" viewBox="0 0 93 37" fill="none" xmlns="http://www.w3.org/2000/svg">
<path d="M1.944 36C1.656 36 1.4 35.92 1.176 35.76C0.952 35.568 0.84 35.312 0.84 34.992V1.872C0.84 1.552 0.952 1.312 1.176 1.152C1.432 0.992 1.72 0.912 2.04 0.912C2.328 0.912 2.6 0.992 2.856 1.152C3.112 1.312 3.24 1.552 3.24 1.872V33.696H17.4C17.688 33.696 17.896 33.824 18.024 34.08C18.184 34.304 18.264 34.56 18.264 34.848C18.264 35.136 18.184 35.408 18.024 35.664C17.896 35.888 17.688 36 17.4 36H1.944ZM31.0103 36.288C29.2183 36.288 27.5863 35.952 26.1143 35.28C24.6743 34.608 23.5223 33.552 22.6583 32.112C21.8263 30.64 21.4103 28.688 21.4103 26.256V10.944C21.4103 8.512 21.8263 6.576 22.6583 5.136C23.5223 3.664 24.6743 2.592 26.1143 1.92C27.5863 1.248 29.2183 0.912 31.0103 0.912C32.8343 0.912 34.4823 1.248 35.9543 1.92C37.4263 2.592 38.5783 3.664 39.4103 5.136C40.2743 6.576 40.7063 8.512 40.7063 10.944V26.256C40.7063 28.688 40.2743 30.64 39.4103 32.112C38.5783 33.552 37.4263 34.608 35.9543 35.28C34.4823 35.952 32.8343 36.288 31.0103 36.288ZM31.0103 33.984C33.2823 33.984 35.0583 33.36 36.3383 32.112C37.6503 30.832 38.3063 28.88 38.3063 26.256V10.944C38.3063 8.32 37.6663 6.384 36.3863 5.136C35.1063 3.856 33.3143 3.216 31.0103 3.216C28.7383 3.216 26.9623 3.856 25.6823 5.136C24.4023 6.384 23.7623 8.32 23.7623 10.944V26.256C23.7623 28.88 24.4023 30.832 25.6823 32.112C26.9623 33.36 28.7383 33.984 31.0103 33.984ZM57.3071 36.288C55.5151 36.288 53.8831 35.952 52.4111 35.28C50.9711 34.608 49.8191 33.552 48.9551 32.112C48.1231 30.64 47.7071 28.688 47.7071 26.256V10.944C47.7071 8.512 48.1231 6.576 48.9551 5.136C49.8191 3.664 50.9711 2.592 52.4111 1.92C53.8831 1.248 55.5151 0.912 57.3071 0.912C59.3231 0.912 61.0511 1.264 62.4911 1.968C63.9311 2.672 65.0351 3.648 65.8031 4.896C66.6031 6.112 67.0031 7.488 67.0031 9.024C67.0031 9.472 66.8911 9.792 66.6671 9.984C66.4431 10.176 66.1551 10.272 65.8031 10.272C65.4831 10.272 65.2111 10.192 64.9871 10.032C64.7631 9.872 64.6351 9.616 64.6031 9.264C64.4431 7.92 64.0591 6.8 63.4511 5.904C62.8431 5.008 62.0111 4.336 60.9551 3.888C59.9311 3.44 58.7151 3.216 57.3071 3.216C55.0351 3.216 53.2591 3.856 51.9791 5.136C50.6991 6.384 50.0591 8.32 50.0591 10.944V26.256C50.0591 28.88 50.6991 30.832 51.9791 32.112C53.2591 33.36 55.0351 33.984 57.3071 33.984C59.5791 33.984 61.3551 33.36 62.6351 32.112C63.9471 30.832 64.6031 28.88 64.6031 26.256V19.776H57.5471C57.2271 19.776 56.9711 19.664 56.7791 19.44C56.6191 19.216 56.5391 18.96 56.5391 18.672C56.5391 18.384 56.6191 18.128 56.7791 17.904C56.9711 17.68 57.2271 17.568 57.5471 17.568H66.0431C66.3311 17.568 66.5551 17.68 66.7151 17.904C66.9071 18.096 67.0031 18.336 67.0031 18.624V26.256C67.0031 28.688 66.5711 30.64 65.7071 32.112C64.8751 33.552 63.7231 34.608 62.2511 35.28C60.7791 35.952 59.1311 36.288 57.3071 36.288ZM83.0415 36.288C81.2495 36.288 79.6175 35.952 78.1455 35.28C76.7055 34.608 75.5535 33.552 74.6895 32.112C73.8575 30.64 73.4415 28.688 73.4415 26.256V10.944C73.4415 8.512 73.8575 6.576 74.6895 5.136C75.5535 3.664 76.7055 2.592 78.1455 1.92C79.6175 1.248 81.2495 0.912 83.0415 0.912C84.8655 0.912 86.5135 1.248 87.9855 1.92C89.4575 2.592 90.6095 3.664 91.4415 5.136C92.3055 6.576 92.7375 8.512 92.7375 10.944V26.256C92.7375 28.688 92.3055 30.64 91.4415 32.112C90.6095 33.552 89.4575 34.608 87.9855 35.28C86.5135 35.952 84.8655 36.288 83.0415 36.288ZM83.0415 33.984C85.3135 33.984 87.0895 33.36 88.3695 32.112C89.6815 30.832 90.3375 28.88 90.3375 26.256V10.944C90.3375 8.32 89.6975 6.384 88.4175 5.136C87.1375 3.856 85.3455 3.216 83.0415 3.216C80.7695 3.216 78.9935 3.856 77.7135 5.136C76.4335 6.384 75.7935 8.32 75.7935 10.944V26.256C75.7935 28.88 76.4335 30.832 77.7135 32.112C78.9935 33.36 80.7695 33.984 83.0415 33.984Z" fill="#0F0F0F"/>
</svg>
