<svg width="94" height="18" viewBox="0 0 94 18" fill="none" xmlns="http://www.w3.org/2000/svg">
<path d="M9.056 17.12C7.808 17.12 6.648 16.912 5.576 16.496C4.52 16.064 3.592 15.464 2.792 14.696C2.008 13.912 1.4 13.008 0.968 11.984C0.536 10.944 0.32 9.816 0.32 8.6C0.32 7.384 0.536 6.264 0.968 5.24C1.4 4.2 2.008 3.296 2.792 2.528C3.592 1.744 4.52 1.144 5.576 0.727999C6.648 0.295999 7.808 0.079999 9.056 0.079999C10.304 0.079999 11.456 0.295999 12.512 0.727999C13.584 1.144 14.512 1.736 15.296 2.504C16.08 3.272 16.688 4.176 17.12 5.216C17.568 6.24 17.792 7.368 17.792 8.6C17.792 9.832 17.568 10.968 17.12 12.008C16.688 13.032 16.08 13.928 15.296 14.696C14.512 15.464 13.584 16.064 12.512 16.496C11.456 16.912 10.304 17.12 9.056 17.12ZM9.056 15.992C10.128 15.992 11.12 15.808 12.032 15.44C12.944 15.072 13.736 14.552 14.408 13.88C15.08 13.208 15.6 12.424 15.968 11.528C16.352 10.632 16.544 9.656 16.544 8.6C16.544 7.528 16.352 6.552 15.968 5.672C15.6 4.776 15.08 3.992 14.408 3.32C13.736 2.648 12.944 2.128 12.032 1.76C11.12 1.392 10.128 1.208 9.056 1.208C7.984 1.208 6.992 1.392 6.08 1.76C5.168 2.128 4.368 2.648 3.68 3.32C3.008 3.992 2.48 4.776 2.096 5.672C1.728 6.552 1.544 7.528 1.544 8.6C1.544 9.656 1.728 10.632 2.096 11.528C2.48 12.424 3.008 13.208 3.68 13.88C4.368 14.552 5.168 15.072 6.08 15.44C6.992 15.808 7.984 15.992 9.056 15.992ZM29.6214 17.12C28.3734 17.12 27.2134 16.912 26.1414 16.496C25.0854 16.064 24.1654 15.464 23.3814 14.696C22.5974 13.928 21.9894 13.032 21.5574 12.008C21.1254 10.968 20.9094 9.832 20.9094 8.6C20.9094 7.368 21.1254 6.24 21.5574 5.216C21.9894 4.176 22.5974 3.272 23.3814 2.504C24.1814 1.736 25.1094 1.144 26.1654 0.727999C27.2214 0.295999 28.3734 0.079999 29.6214 0.079999C30.8054 0.079999 31.9094 0.271999 32.9334 0.655999C33.9734 1.04 34.8614 1.624 35.5974 2.408L34.8294 3.2C34.1094 2.496 33.3094 1.992 32.4294 1.688C31.5654 1.368 30.6454 1.208 29.6694 1.208C28.5974 1.208 27.5974 1.392 26.6694 1.76C25.7574 2.128 24.9574 2.648 24.2694 3.32C23.5974 3.992 23.0694 4.776 22.6854 5.672C22.3174 6.568 22.1334 7.544 22.1334 8.6C22.1334 9.656 22.3174 10.632 22.6854 11.528C23.0694 12.424 23.5974 13.208 24.2694 13.88C24.9574 14.552 25.7574 15.072 26.6694 15.44C27.5974 15.808 28.5974 15.992 29.6694 15.992C30.6454 15.992 31.5654 15.84 32.4294 15.536C33.3094 15.216 34.1094 14.696 34.8294 13.976L35.5974 14.768C34.8614 15.552 33.9734 16.144 32.9334 16.544C31.9094 16.928 30.8054 17.12 29.6214 17.12ZM46.7531 17.12C44.6731 17.12 43.0331 16.512 41.8331 15.296C40.6331 14.08 40.0331 12.272 40.0331 9.872V0.199999H41.2571V9.824C41.2571 11.92 41.7371 13.472 42.6971 14.48C43.6571 15.488 45.0171 15.992 46.7771 15.992C48.5211 15.992 49.8731 15.488 50.8331 14.48C51.7931 13.472 52.2731 11.92 52.2731 9.824V0.199999H53.4971V9.872C53.4971 12.272 52.8971 14.08 51.6971 15.296C50.4971 16.512 48.8491 17.12 46.7531 17.12ZM59.6883 17V0.199999H60.9123V15.896H70.5843V17H59.6883ZM74.2074 17V0.199999H75.4314V17H74.2074ZM79.9655 17V16.136L91.9415 0.823999L92.0615 1.304H80.1095V0.199999H93.2375V1.064L81.2855 16.376L81.1415 15.896H93.5015V17H79.9655Z" fill="#FBFDFF"/>
</svg>
