<svg width="141" height="27" viewBox="0 0 141 27" fill="none" xmlns="http://www.w3.org/2000/svg">
<path d="M14.084 26.18C12.212 26.18 10.472 25.868 8.864 25.244C7.28 24.596 5.888 23.696 4.688 22.544C3.512 21.368 2.6 20.012 1.952 18.476C1.304 16.916 0.98 15.224 0.98 13.4C0.98 11.576 1.304 9.896 1.952 8.36C2.6 6.8 3.512 5.444 4.688 4.292C5.888 3.116 7.28 2.216 8.864 1.592C10.472 0.943999 12.212 0.619998 14.084 0.619998C15.956 0.619998 17.684 0.943999 19.268 1.592C20.876 2.216 22.268 3.104 23.444 4.256C24.62 5.408 25.532 6.764 26.18 8.324C26.852 9.86 27.188 11.552 27.188 13.4C27.188 15.248 26.852 16.952 26.18 18.512C25.532 20.048 24.62 21.392 23.444 22.544C22.268 23.696 20.876 24.596 19.268 25.244C17.684 25.868 15.956 26.18 14.084 26.18ZM14.084 24.488C15.692 24.488 17.18 24.212 18.548 23.66C19.916 23.108 21.104 22.328 22.112 21.32C23.12 20.312 23.9 19.136 24.452 17.792C25.028 16.448 25.316 14.984 25.316 13.4C25.316 11.792 25.028 10.328 24.452 9.008C23.9 7.664 23.12 6.488 22.112 5.48C21.104 4.472 19.916 3.692 18.548 3.14C17.18 2.588 15.692 2.312 14.084 2.312C12.476 2.312 10.988 2.588 9.62 3.14C8.252 3.692 7.052 4.472 6.02 5.48C5.012 6.488 4.22 7.664 3.644 9.008C3.092 10.328 2.816 11.792 2.816 13.4C2.816 14.984 3.092 16.448 3.644 17.792C4.22 19.136 5.012 20.312 6.02 21.32C7.052 22.328 8.252 23.108 9.62 23.66C10.988 24.212 12.476 24.488 14.084 24.488ZM44.9321 26.18C43.0601 26.18 41.3201 25.868 39.7121 25.244C38.1281 24.596 36.7481 23.696 35.5721 22.544C34.3961 21.392 33.4841 20.048 32.8361 18.512C32.1881 16.952 31.8641 15.248 31.8641 13.4C31.8641 11.552 32.1881 9.86 32.8361 8.324C33.4841 6.764 34.3961 5.408 35.5721 4.256C36.7721 3.104 38.1641 2.216 39.7481 1.592C41.3321 0.943999 43.0601 0.619998 44.9321 0.619998C46.7081 0.619998 48.3641 0.907998 49.9001 1.484C51.4601 2.06 52.7921 2.936 53.8961 4.112L52.7441 5.3C51.6641 4.244 50.4641 3.488 49.1441 3.032C47.8481 2.552 46.4681 2.312 45.0041 2.312C43.3961 2.312 41.8961 2.588 40.5041 3.14C39.1361 3.692 37.9361 4.472 36.9041 5.48C35.8961 6.488 35.1041 7.664 34.5281 9.008C33.9761 10.352 33.7001 11.816 33.7001 13.4C33.7001 14.984 33.9761 16.448 34.5281 17.792C35.1041 19.136 35.8961 20.312 36.9041 21.32C37.9361 22.328 39.1361 23.108 40.5041 23.66C41.8961 24.212 43.3961 24.488 45.0041 24.488C46.4681 24.488 47.8481 24.26 49.1441 23.804C50.4641 23.324 51.6641 22.544 52.7441 21.464L53.8961 22.652C52.7921 23.828 51.4601 24.716 49.9001 25.316C48.3641 25.892 46.7081 26.18 44.9321 26.18ZM70.6296 26.18C67.5096 26.18 65.0496 25.268 63.2496 23.444C61.4496 21.62 60.5496 18.908 60.5496 15.308V0.799998H62.3856V15.236C62.3856 18.38 63.1056 20.708 64.5456 22.22C65.9856 23.732 68.0256 24.488 70.6656 24.488C73.2816 24.488 75.3096 23.732 76.7496 22.22C78.1896 20.708 78.9096 18.38 78.9096 15.236V0.799998H80.7456V15.308C80.7456 18.908 79.8456 21.62 78.0456 23.444C76.2456 25.268 73.7736 26.18 70.6296 26.18ZM90.0325 26V0.799998H91.8685V24.344H106.376V26H90.0325ZM111.811 26V0.799998H113.647V26H111.811ZM120.448 26V24.704L138.412 1.736L138.592 2.456H120.664V0.799998H140.356V2.096L122.428 25.064L122.212 24.344H140.752V26H120.448Z" fill="#FBFDFF"/>
</svg>
