<svg width="188" height="35" viewBox="0 0 188 35" fill="none" xmlns="http://www.w3.org/2000/svg">
<path d="M18.112 34.24C15.616 34.24 13.296 33.824 11.152 32.992C9.04 32.128 7.184 30.928 5.584 29.392C4.016 27.824 2.8 26.016 1.936 23.968C1.072 21.888 0.64 19.632 0.64 17.2C0.64 14.768 1.072 12.528 1.936 10.48C2.8 8.4 4.016 6.592 5.584 5.056C7.184 3.488 9.04 2.288 11.152 1.456C13.296 0.591998 15.616 0.159998 18.112 0.159998C20.608 0.159998 22.912 0.591998 25.024 1.456C27.168 2.288 29.024 3.472 30.592 5.008C32.16 6.544 33.376 8.352 34.24 10.432C35.136 12.48 35.584 14.736 35.584 17.2C35.584 19.664 35.136 21.936 34.24 24.016C33.376 26.064 32.16 27.856 30.592 29.392C29.024 30.928 27.168 32.128 25.024 32.992C22.912 33.824 20.608 34.24 18.112 34.24ZM18.112 31.984C20.256 31.984 22.24 31.616 24.064 30.88C25.888 30.144 27.472 29.104 28.816 27.76C30.16 26.416 31.2 24.848 31.936 23.056C32.704 21.264 33.088 19.312 33.088 17.2C33.088 15.056 32.704 13.104 31.936 11.344C31.2 9.552 30.16 7.984 28.816 6.64C27.472 5.296 25.888 4.256 24.064 3.52C22.24 2.784 20.256 2.416 18.112 2.416C15.968 2.416 13.984 2.784 12.16 3.52C10.336 4.256 8.736 5.296 7.36 6.64C6.016 7.984 4.96 9.552 4.192 11.344C3.456 13.104 3.088 15.056 3.088 17.2C3.088 19.312 3.456 21.264 4.192 23.056C4.96 24.848 6.016 26.416 7.36 27.76C8.736 29.104 10.336 30.144 12.16 30.88C13.984 31.616 15.968 31.984 18.112 31.984ZM59.2427 34.24C56.7467 34.24 54.4267 33.824 52.2827 32.992C50.1707 32.128 48.3307 30.928 46.7627 29.392C45.1947 27.856 43.9787 26.064 43.1147 24.016C42.2507 21.936 41.8187 19.664 41.8187 17.2C41.8187 14.736 42.2507 12.48 43.1147 10.432C43.9787 8.352 45.1947 6.544 46.7627 5.008C48.3627 3.472 50.2187 2.288 52.3307 1.456C54.4427 0.591998 56.7467 0.159998 59.2427 0.159998C61.6107 0.159998 63.8188 0.543998 65.8668 1.312C67.9468 2.08 69.7228 3.248 71.1948 4.816L69.6588 6.4C68.2188 4.992 66.6188 3.984 64.8588 3.376C63.1308 2.736 61.2908 2.416 59.3387 2.416C57.1947 2.416 55.1947 2.784 53.3387 3.52C51.5147 4.256 49.9147 5.296 48.5387 6.64C47.1947 7.984 46.1387 9.552 45.3707 11.344C44.6347 13.136 44.2667 15.088 44.2667 17.2C44.2667 19.312 44.6347 21.264 45.3707 23.056C46.1387 24.848 47.1947 26.416 48.5387 27.76C49.9147 29.104 51.5147 30.144 53.3387 30.88C55.1947 31.616 57.1947 31.984 59.3387 31.984C61.2908 31.984 63.1308 31.68 64.8588 31.072C66.6188 30.432 68.2188 29.392 69.6588 27.952L71.1948 29.536C69.7228 31.104 67.9468 32.288 65.8668 33.088C63.8188 33.856 61.6107 34.24 59.2427 34.24ZM93.5061 34.24C89.3461 34.24 86.0661 33.024 83.6661 30.592C81.2661 28.16 80.0661 24.544 80.0661 19.744V0.399998H82.5141V19.648C82.5141 23.84 83.4741 26.944 85.3941 28.96C87.3141 30.976 90.0341 31.984 93.5541 31.984C97.0421 31.984 99.7461 30.976 101.666 28.96C103.586 26.944 104.546 23.84 104.546 19.648V0.399998H106.994V19.744C106.994 24.544 105.794 28.16 103.394 30.592C100.994 33.024 97.6981 34.24 93.5061 34.24ZM119.377 34V0.399998H121.825V31.792H141.169V34H119.377ZM148.415 34V0.399998H150.863V34H148.415ZM159.931 34V32.272L183.883 1.648L184.123 2.608H160.219V0.399998H186.475V2.128L162.571 32.752L162.283 31.792H187.003V34H159.931Z" fill="#0F0F0F"/>
</svg>
