<svg width="126" height="24" viewBox="0 0 126 24" fill="none" xmlns="http://www.w3.org/2000/svg">
<path d="M12.408 23.16C10.744 23.16 9.19733 22.8827 7.768 22.328C6.36 21.752 5.12267 20.952 4.056 19.928C3.01067 18.8827 2.2 17.6773 1.624 16.312C1.048 14.9253 0.76 13.4213 0.76 11.8C0.76 10.1787 1.048 8.68533 1.624 7.32C2.2 5.93333 3.01067 4.728 4.056 3.704C5.12267 2.65867 6.36 1.85867 7.768 1.304C9.19733 0.727999 10.744 0.439999 12.408 0.439999C14.072 0.439999 15.608 0.727999 17.016 1.304C18.4453 1.85867 19.6827 2.648 20.728 3.672C21.7733 4.696 22.584 5.90133 23.16 7.288C23.7573 8.65333 24.056 10.1573 24.056 11.8C24.056 13.4427 23.7573 14.9573 23.16 16.344C22.584 17.7093 21.7733 18.904 20.728 19.928C19.6827 20.952 18.4453 21.752 17.016 22.328C15.608 22.8827 14.072 23.16 12.408 23.16ZM12.408 21.656C13.8373 21.656 15.16 21.4107 16.376 20.92C17.592 20.4293 18.648 19.736 19.544 18.84C20.44 17.944 21.1333 16.8987 21.624 15.704C22.136 14.5093 22.392 13.208 22.392 11.8C22.392 10.3707 22.136 9.06933 21.624 7.896C21.1333 6.70133 20.44 5.656 19.544 4.76C18.648 3.864 17.592 3.17067 16.376 2.68C15.16 2.18933 13.8373 1.944 12.408 1.944C10.9787 1.944 9.656 2.18933 8.44 2.68C7.224 3.17067 6.15733 3.864 5.24 4.76C4.344 5.656 3.64 6.70133 3.128 7.896C2.63733 9.06933 2.392 10.3707 2.392 11.8C2.392 13.208 2.63733 14.5093 3.128 15.704C3.64 16.8987 4.344 17.944 5.24 18.84C6.15733 19.736 7.224 20.4293 8.44 20.92C9.656 21.4107 10.9787 21.656 12.408 21.656ZM39.8285 23.16C38.1645 23.16 36.6178 22.8827 35.1885 22.328C33.7805 21.752 32.5538 20.952 31.5085 19.928C30.4632 18.904 29.6525 17.7093 29.0765 16.344C28.5005 14.9573 28.2125 13.4427 28.2125 11.8C28.2125 10.1573 28.5005 8.65333 29.0765 7.288C29.6525 5.90133 30.4632 4.696 31.5085 3.672C32.5752 2.648 33.8125 1.85867 35.2205 1.304C36.6285 0.727999 38.1645 0.439999 39.8285 0.439999C41.4072 0.439999 42.8792 0.695999 44.2445 1.208C45.6312 1.72 46.8152 2.49867 47.7965 3.544L46.7725 4.6C45.8125 3.66133 44.7458 2.98933 43.5725 2.584C42.4205 2.15733 41.1938 1.944 39.8925 1.944C38.4632 1.944 37.1298 2.18933 35.8925 2.68C34.6765 3.17067 33.6098 3.864 32.6925 4.76C31.7965 5.656 31.0925 6.70133 30.5805 7.896C30.0898 9.09067 29.8445 10.392 29.8445 11.8C29.8445 13.208 30.0898 14.5093 30.5805 15.704C31.0925 16.8987 31.7965 17.944 32.6925 18.84C33.6098 19.736 34.6765 20.4293 35.8925 20.92C37.1298 21.4107 38.4632 21.656 39.8925 21.656C41.1938 21.656 42.4205 21.4533 43.5725 21.048C44.7458 20.6213 45.8125 19.928 46.7725 18.968L47.7965 20.024C46.8152 21.0693 45.6312 21.8587 44.2445 22.392C42.8792 22.904 41.4072 23.16 39.8285 23.16ZM62.6707 23.16C59.8974 23.16 57.7107 22.3493 56.1107 20.728C54.5107 19.1067 53.7107 16.696 53.7107 13.496V0.599998H55.3427V13.432C55.3427 16.2267 55.9827 18.296 57.2627 19.64C58.5427 20.984 60.3561 21.656 62.7027 21.656C65.0281 21.656 66.8308 20.984 68.1108 19.64C69.3908 18.296 70.0308 16.2267 70.0308 13.432V0.599998H71.6628V13.496C71.6628 16.696 70.8628 19.1067 69.2628 20.728C67.6627 22.3493 65.4654 23.16 62.6707 23.16ZM79.9177 23V0.599998H81.5497V21.528H94.4457V23H79.9177ZM99.2765 23V0.599998H100.908V23H99.2765ZM106.954 23V21.848L122.922 1.432L123.082 2.072H107.146V0.599998H124.65V1.752L108.714 22.168L108.522 21.528H125.002V23H106.954Z" fill="#FBFDFF"/>
</svg>
