<svg width="50" height="20" viewBox="0 0 50 20" fill="none" xmlns="http://www.w3.org/2000/svg">
<g clip-path="url(#clip0_313_2535)">
<path d="M1.21997 19.2859C1.06568 19.2859 0.92854 19.2431 0.80854 19.1573C0.68854 19.0545 0.62854 18.9173 0.62854 18.7459V1.00306C0.62854 0.831627 0.68854 0.703055 0.80854 0.617341C0.945683 0.531627 1.09997 0.48877 1.2714 0.48877C1.42568 0.48877 1.5714 0.531627 1.70854 0.617341C1.84568 0.703055 1.91425 0.831627 1.91425 1.00306V18.0516H9.49997C9.65425 18.0516 9.76568 18.1202 9.83425 18.2573C9.91997 18.3773 9.96283 18.5145 9.96283 18.6688C9.96283 18.8231 9.91997 18.9688 9.83425 19.1059C9.76568 19.2259 9.65425 19.2859 9.49997 19.2859H1.21997ZM16.7912 19.4402C15.8312 19.4402 14.9569 19.2602 14.1683 18.9002C13.3969 18.5402 12.7798 17.9745 12.3169 17.2031C11.8712 16.4145 11.6483 15.3688 11.6483 14.0659V5.86306C11.6483 4.5602 11.8712 3.52306 12.3169 2.75163C12.7798 1.96306 13.3969 1.38877 14.1683 1.02877C14.9569 0.668769 15.8312 0.48877 16.7912 0.48877C17.7683 0.48877 18.6512 0.668769 19.4398 1.02877C20.2283 1.38877 20.8455 1.96306 21.2912 2.75163C21.754 3.52306 21.9855 4.5602 21.9855 5.86306V14.0659C21.9855 15.3688 21.754 16.4145 21.2912 17.2031C20.8455 17.9745 20.2283 18.5402 19.4398 18.9002C18.6512 19.2602 17.7683 19.4402 16.7912 19.4402ZM16.7912 18.2059C18.0083 18.2059 18.9598 17.8716 19.6455 17.2031C20.3483 16.5173 20.6998 15.4716 20.6998 14.0659V5.86306C20.6998 4.45734 20.3569 3.4202 19.6712 2.75163C18.9855 2.06591 18.0255 1.72306 16.7912 1.72306C15.574 1.72306 14.6226 2.06591 13.9369 2.75163C13.2512 3.4202 12.9083 4.45734 12.9083 5.86306V14.0659C12.9083 15.4716 13.2512 16.5173 13.9369 17.2031C14.6226 17.8716 15.574 18.2059 16.7912 18.2059ZM30.8788 19.4402C29.9188 19.4402 29.0445 19.2602 28.2559 18.9002C27.4845 18.5402 26.8673 17.9745 26.4045 17.2031C25.9588 16.4145 25.7359 15.3688 25.7359 14.0659V5.86306C25.7359 4.5602 25.9588 3.52306 26.4045 2.75163C26.8673 1.96306 27.4845 1.38877 28.2559 1.02877C29.0445 0.668769 29.9188 0.48877 30.8788 0.48877C31.9588 0.48877 32.8845 0.67734 33.6559 1.05448C34.4273 1.43163 35.0188 1.95448 35.4302 2.62306C35.8588 3.27448 36.073 4.01163 36.073 4.83448C36.073 5.07448 36.013 5.24591 35.893 5.34877C35.773 5.45163 35.6188 5.50306 35.4302 5.50306C35.2588 5.50306 35.113 5.4602 34.993 5.37448C34.873 5.28877 34.8045 5.15163 34.7873 4.96306C34.7016 4.24306 34.4959 3.64306 34.1702 3.16306C33.8445 2.68306 33.3988 2.32306 32.833 2.08306C32.2845 1.84306 31.633 1.72306 30.8788 1.72306C29.6616 1.72306 28.7102 2.06591 28.0245 2.75163C27.3388 3.4202 26.9959 4.45734 26.9959 5.86306V14.0659C26.9959 15.4716 27.3388 16.5173 28.0245 17.2031C28.7102 17.8716 29.6616 18.2059 30.8788 18.2059C32.0959 18.2059 33.0473 17.8716 33.733 17.2031C34.4359 16.5173 34.7873 15.4716 34.7873 14.0659V10.5945H31.0073C30.8359 10.5945 30.6988 10.5345 30.5959 10.4145C30.5102 10.2945 30.4673 10.1573 30.4673 10.0031C30.4673 9.84877 30.5102 9.71163 30.5959 9.59163C30.6988 9.47163 30.8359 9.41163 31.0073 9.41163H35.5588C35.713 9.41163 35.833 9.47163 35.9188 9.59163C36.0216 9.69448 36.073 9.82306 36.073 9.97734V14.0659C36.073 15.3688 35.8416 16.4145 35.3788 17.2031C34.933 17.9745 34.3159 18.5402 33.5273 18.9002C32.7388 19.2602 31.8559 19.4402 30.8788 19.4402ZM44.665 19.4402C43.705 19.4402 42.8308 19.2602 42.0422 18.9002C41.2708 18.5402 40.6536 17.9745 40.1908 17.2031C39.745 16.4145 39.5222 15.3688 39.5222 14.0659V5.86306C39.5222 4.5602 39.745 3.52306 40.1908 2.75163C40.6536 1.96306 41.2708 1.38877 42.0422 1.02877C42.8308 0.668769 43.705 0.48877 44.665 0.48877C45.6422 0.48877 46.525 0.668769 47.3136 1.02877C48.1022 1.38877 48.7193 1.96306 49.165 2.75163C49.6279 3.52306 49.8593 4.5602 49.8593 5.86306V14.0659C49.8593 15.3688 49.6279 16.4145 49.165 17.2031C48.7193 17.9745 48.1022 18.5402 47.3136 18.9002C46.525 19.2602 45.6422 19.4402 44.665 19.4402ZM44.665 18.2059C45.8822 18.2059 46.8336 17.8716 47.5193 17.2031C48.2222 16.5173 48.5736 15.4716 48.5736 14.0659V5.86306C48.5736 4.45734 48.2308 3.4202 47.545 2.75163C46.8593 2.06591 45.8993 1.72306 44.665 1.72306C43.4479 1.72306 42.4965 2.06591 41.8108 2.75163C41.125 3.4202 40.7822 4.45734 40.7822 5.86306V14.0659C40.7822 15.4716 41.125 16.5173 41.8108 17.2031C42.4965 17.8716 43.4479 18.2059 44.665 18.2059Z" fill="#FBFDFF"/>
</g>
<defs>
<clipPath id="clip0_313_2535">
<rect width="50" height="20" fill="white"/>
</clipPath>
</defs>
</svg>
