<svg width="40" height="40" viewBox="0 0 40 40" fill="none" xmlns="http://www.w3.org/2000/svg">
<mask id="mask0_118_7652" style="mask-type:alpha" maskUnits="userSpaceOnUse" x="0" y="0" width="40" height="40">
<rect width="40" height="40" fill="#D9D9D9"/>
</mask>
<g mask="url(#mask0_118_7652)">
<path d="M9.79063 29.2436C11.3726 28.1282 12.991 27.2586 14.6458 26.6346C16.3008 26.0107 18.0855 25.6987 20 25.6987C21.9145 25.6987 23.7021 26.0107 25.3627 26.6346C27.0233 27.2586 28.6446 28.1282 30.2265 29.2436C31.3796 27.9281 32.2534 26.5004 32.8478 24.9606C33.4422 23.4208 33.7393 21.7673 33.7393 20C33.7393 16.1474 32.4126 12.8944 29.7591 10.2409C27.1056 7.5874 23.8526 6.26064 20 6.26064C16.1475 6.26064 12.8944 7.5874 10.2409 10.2409C7.58743 12.8944 6.26068 16.1474 6.26068 20C6.26068 21.7673 6.56072 23.4208 7.1608 24.9606C7.76088 26.5004 8.6375 27.9281 9.79063 29.2436ZM19.9941 21.0469C18.4881 21.0469 17.2201 20.53 16.1902 19.4962C15.1603 18.4624 14.6453 17.1925 14.6453 15.6864C14.6453 14.1804 15.1622 12.9124 16.1961 11.8825C17.2299 10.8526 18.4998 10.3376 20.0059 10.3376C21.5119 10.3376 22.7799 10.8545 23.8098 11.8884C24.8397 12.9222 25.3547 14.1921 25.3547 15.6981C25.3547 17.2042 24.8378 18.4722 23.804 19.5021C22.7701 20.532 21.5002 21.0469 19.9941 21.0469ZM20.013 35.8333C17.817 35.8333 15.7569 35.4198 13.8327 34.5929C11.9085 33.7659 10.2299 32.6352 8.79693 31.2008C7.36398 29.7663 6.23405 28.0899 5.40713 26.1715C4.58019 24.2531 4.16672 22.1953 4.16672 19.9979C4.16672 17.8006 4.58019 15.7434 5.40713 13.8264C6.23405 11.9094 7.36475 10.2336 8.79922 8.79919C10.2337 7.36471 11.9101 6.23402 13.8285 5.4071C15.7469 4.58016 17.8047 4.16669 20.0021 4.16669C22.1994 4.16669 24.2566 4.58016 26.1736 5.4071C28.0906 6.23402 29.7664 7.36471 31.2008 8.79919C32.6353 10.2336 33.766 11.9097 34.5929 13.8273C35.4198 15.7449 35.8333 17.7981 35.8333 19.987C35.8333 22.183 35.4198 24.2431 34.5929 26.1673C33.766 28.0915 32.6353 29.7701 31.2008 31.2031C29.7664 32.636 28.0903 33.7659 26.1727 34.5929C24.2551 35.4198 22.2019 35.8333 20.013 35.8333ZM20 33.7393C21.5342 33.7393 23.0362 33.4945 24.5059 33.0048C25.9756 32.5151 27.3348 31.7585 28.5834 30.735C27.3348 29.8034 25.987 29.0801 24.5401 28.5651C23.0931 28.0502 21.5798 27.7927 20 27.7927C18.4202 27.7927 16.9042 28.0475 15.4519 28.5571C13.9996 29.0667 12.6581 29.7927 11.4273 30.735C12.6688 31.7585 14.0244 32.5151 15.4941 33.0048C16.9639 33.4945 18.4658 33.7393 20 33.7393ZM20.0015 18.953C20.9421 18.953 21.7205 18.6445 22.3366 18.0274C22.9527 17.4103 23.2607 16.6314 23.2607 15.6908C23.2607 14.7502 22.9522 13.9718 22.3351 13.3557C21.718 12.7396 20.9391 12.4316 19.9985 12.4316C19.0579 12.4316 18.2796 12.7401 17.6635 13.3572C17.0474 13.9743 16.7393 14.7532 16.7393 15.6938C16.7393 16.6344 17.0478 17.4127 17.6649 18.0289C18.282 18.645 19.0609 18.953 20.0015 18.953Z" fill="#0F0F0F"/>
</g>
</svg>
