<svg width="24" height="24" viewBox="0 0 24 24" fill="none" xmlns="http://www.w3.org/2000/svg">
<mask id="mask0_313_2540" style="mask-type:alpha" maskUnits="userSpaceOnUse" x="0" y="0" width="24" height="24">
<rect width="24" height="24" fill="#D9D9D9"/>
</mask>
<g mask="url(#mask0_313_2540)">
<path d="M6.0641 21.4997C5.6343 21.4997 5.26617 21.3465 4.9597 21.04C4.65323 20.7335 4.5 20.3654 4.5 19.9356V8.06386C4.5 7.63406 4.65323 7.26592 4.9597 6.95946C5.26617 6.65299 5.6343 6.49976 6.0641 6.49976H8.3718V6.12796C8.3718 5.11686 8.72372 4.25938 9.42755 3.55553C10.1314 2.85168 10.9889 2.49976 12 2.49976C13.0111 2.49976 13.8686 2.85168 14.5724 3.55553C15.2762 4.25938 15.6282 5.11686 15.6282 6.12796V6.49976H17.9358C18.3656 6.49976 18.7338 6.65299 19.0402 6.95946C19.3467 7.26592 19.5 7.63406 19.5 8.06386V19.9356C19.5 20.3654 19.3467 20.7335 19.0402 21.04C18.7338 21.3465 18.3656 21.4997 17.9358 21.4997H6.0641ZM6.0641 20.2433H17.9358C18.0128 20.2433 18.0833 20.2113 18.1474 20.1472C18.2115 20.0831 18.2436 20.0125 18.2436 19.9356V8.06386C18.2436 7.98692 18.2115 7.91641 18.1474 7.85231C18.0833 7.78819 18.0128 7.75613 17.9358 7.75613H15.6282V10.128C15.6282 10.3063 15.5677 10.4555 15.4469 10.5758C15.3261 10.696 15.1761 10.7561 14.997 10.7561C14.8178 10.7561 14.6688 10.696 14.55 10.5758C14.4312 10.4555 14.3718 10.3063 14.3718 10.128V7.75613H9.62815V10.128C9.62815 10.3063 9.56774 10.4555 9.44693 10.5758C9.32611 10.696 9.17612 10.7561 8.99695 10.7561C8.81778 10.7561 8.6688 10.696 8.55 10.5758C8.4312 10.4555 8.3718 10.3063 8.3718 10.128V7.75613H6.0641C5.98717 7.75613 5.91665 7.78819 5.85255 7.85231C5.78843 7.91641 5.75637 7.98692 5.75637 8.06386V19.9356C5.75637 20.0125 5.78843 20.0831 5.85255 20.1472C5.91665 20.2113 5.98717 20.2433 6.0641 20.2433ZM9.62815 6.49976H14.3718V6.12796C14.3718 5.46257 14.1428 4.90092 13.6849 4.44301C13.227 3.98509 12.6654 3.75613 12 3.75613C11.3346 3.75613 10.7729 3.98509 10.315 4.44301C9.85711 4.90092 9.62815 5.46257 9.62815 6.12796V6.49976Z" fill="#0F0F0F"/>
</g>
</svg>
