<svg width="32" height="32" viewBox="0 0 32 32" fill="none" xmlns="http://www.w3.org/2000/svg">
<mask id="mask0_370_6063" style="mask-type:alpha" maskUnits="userSpaceOnUse" x="0" y="0" width="32" height="32">
<rect width="32" height="32" fill="#D9D9D9"/>
</mask>
<g mask="url(#mask0_370_6063)">
<path d="M16 17.4056L9.23585 24.1697C9.05125 24.3543 8.8192 24.4487 8.53972 24.453C8.26025 24.4573 8.02394 24.3628 7.83078 24.1697C7.6376 23.9765 7.54102 23.7423 7.54102 23.4671C7.54102 23.1919 7.6376 22.9578 7.83078 22.7646L14.5949 16.0005L7.83078 9.23634C7.64616 9.05174 7.55172 8.81969 7.54745 8.5402C7.54316 8.26074 7.6376 8.02443 7.83078 7.83127C8.02394 7.63809 8.25812 7.5415 8.53332 7.5415C8.80852 7.5415 9.04269 7.63809 9.23585 7.83127L16 14.5954L22.7641 7.83127C22.9487 7.64665 23.1808 7.5522 23.4602 7.54794C23.7397 7.54365 23.976 7.63809 24.1692 7.83127C24.3624 8.02443 24.4589 8.2586 24.4589 8.5338C24.4589 8.809 24.3624 9.04318 24.1692 9.23634L17.4051 16.0005L24.1692 22.7646C24.3538 22.9492 24.4482 23.1812 24.4525 23.4607C24.4568 23.7402 24.3624 23.9765 24.1692 24.1697C23.976 24.3628 23.7418 24.4594 23.4666 24.4594C23.1914 24.4594 22.9573 24.3628 22.7641 24.1697L16 17.4056Z" fill="#0F0F0F"/>
</g>
</svg>
