<svg width="32" height="32" viewBox="0 0 40 40" fill="#FBFDFF" xmlns="http://www.w3.org/2000/svg">
<mask id="mask0_181_1695" style="mask-type:alpha" maskUnits="userSpaceOnUse" x="0" y="0" width="40" height="40">
<rect width="40" height="40" fill="#FBFDFF"/>
</mask>
<g mask="url(#mask0_181_1695)">
<path d="M17.1839 26.267C16.9723 26.0474 16.8665 25.793 16.8665 25.504C16.8665 25.215 16.9723 24.9694 17.1839 24.7671L20.4873 21.4637H7.04061C6.74344 21.4637 6.49465 21.363 6.29424 21.1616C6.09385 20.9602 5.99365 20.7102 5.99365 20.4116C5.99365 20.113 6.09385 19.8647 6.29424 19.6667C6.49465 19.4687 6.74344 19.3697 7.04061 19.3697H20.4424L17.1059 16.0332C16.9178 15.838 16.8238 15.5998 16.8238 15.3185C16.8238 15.0372 16.9344 14.787 17.1556 14.5678C17.3498 14.3567 17.5916 14.2512 17.881 14.2512C18.1705 14.2512 18.421 14.3569 18.6325 14.5685L23.5917 19.5173C23.7314 19.6568 23.8305 19.8029 23.8889 19.9557C23.9473 20.1084 23.9765 20.2708 23.9765 20.4428C23.9765 20.6149 23.9473 20.7742 23.8889 20.921C23.8305 21.0677 23.7325 21.2098 23.5951 21.3472L18.6336 26.3087C18.4455 26.4967 18.2098 26.5879 17.9264 26.5822C17.6429 26.5765 17.3954 26.4715 17.1839 26.267ZM21.0405 35C20.7434 35 20.4946 34.8993 20.2942 34.698C20.0938 34.4966 19.9936 34.2466 19.9936 33.948C19.9936 33.6493 20.0938 33.401 20.2942 33.203C20.4946 33.005 20.7434 32.906 21.0405 32.906H31.3995C31.5277 32.906 31.6453 32.8526 31.7521 32.7458C31.8589 32.6389 31.9124 32.5214 31.9124 32.3932V8.44021C31.9124 8.31199 31.8589 8.19446 31.7521 8.08762C31.6453 7.98076 31.5277 7.92733 31.3995 7.92733H21.0405C20.7434 7.92733 20.4946 7.82665 20.2942 7.62529C20.0938 7.4239 19.9936 7.17392 19.9936 6.87533C19.9936 6.57669 20.0938 6.32837 20.2942 6.13037C20.4946 5.93237 20.7434 5.83337 21.0405 5.83337H31.3995C32.1159 5.83337 32.7294 6.08876 33.2402 6.59954C33.7509 7.11032 34.0063 7.72387 34.0063 8.44021V32.3932C34.0063 33.1095 33.7509 33.7231 33.2402 34.2338C32.7294 34.7446 32.1159 35 31.3995 35H21.0405Z" fill="#FBFDFF"/>
</g>
</svg>
