<svg width="16" height="16" viewBox="0 0 16 16" fill="none" xmlns="http://www.w3.org/2000/svg">
<mask id="mask0_385_1998" style="mask-type:alpha" maskUnits="userSpaceOnUse" x="0" y="0" width="16" height="16">
<rect width="16" height="16" fill="#D9D9D9"/>
</mask>
<g mask="url(#mask0_385_1998)">
<path d="M10.2987 10.7347C10.191 10.6356 10.1372 10.5127 10.1372 10.366C10.1372 10.2193 10.191 10.0935 10.2987 9.98861L11.5872 8.70015H6.62691C6.48503 8.70015 6.36068 8.64673 6.25384 8.5399C6.14701 8.43306 6.09359 8.30871 6.09359 8.16683C6.09359 8.02495 6.14701 7.9006 6.25384 7.79376C6.36068 7.68692 6.48503 7.6335 6.62691 7.6335H11.5372L10.2756 6.3553C10.1876 6.25319 10.1436 6.133 10.1436 5.99475C10.1436 5.85649 10.1953 5.73565 10.2987 5.63223C10.4036 5.52882 10.5294 5.47711 10.6761 5.47711C10.8228 5.47711 10.95 5.53096 11.0577 5.63865L13.1474 7.72836C13.2219 7.79743 13.2745 7.87046 13.3052 7.94746C13.3359 8.02447 13.3512 8.10315 13.3512 8.1835C13.3512 8.26383 13.3359 8.3425 13.3052 8.41951C13.2745 8.49652 13.2219 8.56956 13.1474 8.63861L11.0346 10.7514C10.9397 10.8463 10.8231 10.8969 10.6846 10.9033C10.5462 10.9097 10.4175 10.8535 10.2987 10.7347ZM3.66924 14.0001C3.31417 14.0001 3.01343 13.877 2.76704 13.6306C2.52066 13.3842 2.39746 13.0834 2.39746 12.7284V3.6053C2.39746 3.25021 2.52066 2.94947 2.76704 2.70308C3.01343 2.45669 3.31417 2.3335 3.66924 2.3335H7.53464C7.67138 2.3335 7.79317 2.38692 7.90001 2.49376C8.00684 2.6006 8.06026 2.72495 8.06026 2.86683C8.06026 3.00871 8.00684 3.13306 7.90001 3.2399C7.79317 3.34673 7.67138 3.40015 7.53464 3.40015H3.66924C3.61796 3.40015 3.57094 3.42151 3.52821 3.46425C3.48547 3.50699 3.46409 3.55401 3.46409 3.6053V12.7284C3.46409 12.7797 3.48547 12.8267 3.52821 12.8694C3.57094 12.9121 3.61796 12.9335 3.66924 12.9335H7.53464C7.67138 12.9335 7.79317 12.9869 7.90001 13.0938C8.00684 13.2006 8.06026 13.325 8.06026 13.4668C8.06026 13.6087 8.00684 13.7331 7.90001 13.8399C7.79317 13.9467 7.67138 14.0001 7.53464 14.0001H3.66924Z" fill="#CE3D37"/>
</g>
</svg>
