<svg width="24" height="24" viewBox="0 0 24 24" fill="none" xmlns="http://www.w3.org/2000/svg">
<mask id="mask0_313_2537" style="mask-type:alpha" maskUnits="userSpaceOnUse" x="0" y="0" width="24" height="24">
<rect width="24" height="24" fill="#D9D9D9"/>
</mask>
<g mask="url(#mask0_313_2537)">
<path d="M3.99997 17.6347C3.78747 17.6347 3.60936 17.5628 3.46563 17.419C3.32188 17.2751 3.25 17.0969 3.25 16.8844C3.25 16.6718 3.32188 16.4937 3.46563 16.3501C3.60936 16.2065 3.78747 16.1347 3.99997 16.1347H20C20.2125 16.1347 20.3906 16.2066 20.5344 16.3504C20.6781 16.4942 20.75 16.6724 20.75 16.885C20.75 17.0976 20.6781 17.2757 20.5344 17.4193C20.3906 17.5629 20.2125 17.6347 20 17.6347H3.99997ZM3.99997 12.7501C3.78747 12.7501 3.60936 12.6782 3.46563 12.5344C3.32188 12.3905 3.25 12.2123 3.25 11.9998C3.25 11.7872 3.32188 11.6091 3.46563 11.4655C3.60936 11.3219 3.78747 11.2501 3.99997 11.2501H20C20.2125 11.2501 20.3906 11.322 20.5344 11.4658C20.6781 11.6096 20.75 11.7878 20.75 12.0004C20.75 12.213 20.6781 12.3911 20.5344 12.5347C20.3906 12.6783 20.2125 12.7501 20 12.7501H3.99997ZM3.99997 7.86545C3.78747 7.86545 3.60936 7.79355 3.46563 7.64973C3.32188 7.50593 3.25 7.32773 3.25 7.11513C3.25 6.90254 3.32188 6.72446 3.46563 6.58088C3.60936 6.43728 3.78747 6.36548 3.99997 6.36548H20C20.2125 6.36548 20.3906 6.43739 20.5344 6.5812C20.6781 6.72502 20.75 6.90322 20.75 7.1158C20.75 7.3284 20.6781 7.50649 20.5344 7.65008C20.3906 7.79366 20.2125 7.86545 20 7.86545H3.99997Z" fill="#1C1B1F"/>
</g>
</svg>
