<svg width="32" height="32" viewBox="0 0 40 40" fill="none" xmlns="http://www.w3.org/2000/svg">
<mask id="mask0_313_2537" style="mask-type:alpha" maskUnits="userSpaceOnUse" x="0" y="0" width="40" height="40">
<rect width="40" height="40" fill="#FBFDFF"/>
</mask>
<g mask="url(#mask0_313_2537)">
<path d="M6.66665 29.3911C6.31248 29.3911 6.01562 29.2713 5.77606 29.0316C5.53648 28.7919 5.41669 28.4949 5.41669 28.1406C5.41669 27.7863 5.53648 27.4894 5.77606 27.2501C6.01562 27.0108 6.31248 26.8912 6.66665 26.8912H33.3333C33.6875 26.8912 33.9844 27.011 34.2239 27.2507C34.4635 27.4904 34.5833 27.7874 34.5833 28.1417C34.5833 28.496 34.4635 28.7928 34.2239 29.0321C33.9844 29.2715 33.6875 29.3911 33.3333 29.3911H6.66665ZM6.66665 21.2501C6.31248 21.2501 6.01562 21.1303 5.77606 20.8906C5.53648 20.6509 5.41669 20.3539 5.41669 19.9996C5.41669 19.6453 5.53648 19.3484 5.77606 19.1091C6.01562 18.8698 6.31248 18.7502 6.66665 18.7502H33.3333C33.6875 18.7502 33.9844 18.87 34.2239 19.1097C34.4635 19.3494 34.5833 19.6464 34.5833 20.0007C34.5833 20.355 34.4635 20.6518 34.2239 20.8911C33.9844 21.1304 33.6875 21.2501 33.3333 21.2501H6.66665ZM6.66665 13.1091C6.31248 13.1091 6.01562 12.9892 5.77606 12.7495C5.53648 12.5099 5.41669 12.2129 5.41669 11.8585C5.41669 11.5042 5.53648 11.2074 5.77606 10.9681C6.01562 10.7288 6.31248 10.6091 6.66665 10.6091H33.3333C33.6875 10.6091 33.9844 10.729 34.2239 10.9687C34.4635 11.2084 34.5833 11.5054 34.5833 11.8597C34.5833 12.214 34.4635 12.5108 34.2239 12.7501C33.9844 12.9894 33.6875 13.1091 33.3333 13.1091H6.66665Z" fill="#FBFDFF"/>
</g>
</svg>
