<svg width="20" height="20" viewBox="0 0 24 24" fill="#0F0F0F" xmlns="http://www.w3.org/2000/svg">
<mask id="mask0_142_1690" style="mask-type:alpha" maskUnits="userSpaceOnUse" x="0" y="0" width="24" height="24">
<rect width="24" height="24" fill="#0F0F0F"/>
</mask>
<g mask="url(#mask0_142_1690)">
<path d="M19.0154 20.05L13.2615 14.2961C12.7615 14.7089 12.1865 15.032 11.5365 15.2653C10.8865 15.4987 10.2141 15.6153 9.51922 15.6153C7.81005 15.6153 6.36354 15.0236 5.17967 13.84C3.9958 12.6564 3.40387 11.2103 3.40387 9.50157C3.40387 7.79283 3.99565 6.34616 5.17922 5.16154C6.36279 3.97694 7.80894 3.38464 9.51767 3.38464C11.2264 3.38464 12.6731 3.97658 13.8577 5.16044C15.0423 6.34431 15.6346 7.79083 15.6346 9.49999C15.6346 10.2141 15.5147 10.8961 15.275 11.5461C15.0352 12.1961 14.7153 12.7615 14.3153 13.2423L20.0942 19.0211C20.2327 19.1569 20.3019 19.3236 20.3019 19.521C20.3019 19.7185 20.2236 19.8956 20.0671 20.0521C19.9236 20.1955 19.7487 20.2673 19.5423 20.2673C19.3359 20.2673 19.1603 20.1948 19.0154 20.05ZM9.51922 14.1154C10.8077 14.1154 11.899 13.6683 12.7933 12.774C13.6875 11.8798 14.1346 10.7885 14.1346 9.49999C14.1346 8.21153 13.6875 7.12018 12.7933 6.22594C11.899 5.33171 10.8077 4.88459 9.51922 4.88459C8.23075 4.88459 7.1394 5.33171 6.24517 6.22594C5.35095 7.12018 4.90384 8.21153 4.90384 9.49999C4.90384 10.7885 5.35095 11.8798 6.24517 12.774C7.1394 13.6683 8.23075 14.1154 9.51922 14.1154Z" fill="#0F0F0F"/>
</g>
</svg>
