<svg width="28" height="28" viewBox="0 0 40 40" fill="none" xmlns="http://www.w3.org/2000/svg">
<mask id="mask0_118_7657" style="mask-type:alpha" maskUnits="userSpaceOnUse" x="0" y="0" width="40" height="40">
<rect width="40" height="40" fill="#D9D9D9"/>
</mask>
<g mask="url(#mask0_118_7657)">
<path d="M10.1069 35.8333C9.39056 35.8333 8.77701 35.5779 8.26623 35.0671C7.75545 34.5563 7.50006 33.9428 7.50006 33.2264V13.4402C7.50006 12.7239 7.75545 12.1103 8.26623 11.5995C8.77701 11.0887 9.39056 10.8334 10.1069 10.8334H13.9531V10.2137C13.9531 8.52852 14.5396 7.09939 15.7126 5.92631C16.8857 4.75323 18.3149 4.16669 20 4.16669C21.6852 4.16669 23.1143 4.75323 24.2874 5.92631C25.4604 7.09939 26.047 8.52852 26.047 10.2137V10.8334H29.8931C30.6095 10.8334 31.223 11.0887 31.7338 11.5995C32.2446 12.1103 32.5 12.7239 32.5 13.4402V33.2264C32.5 33.9428 32.2446 34.5563 31.7338 35.0671C31.223 35.5779 30.6095 35.8333 29.8931 35.8333H10.1069ZM10.1069 33.7393H29.8931C30.0214 33.7393 30.1389 33.6859 30.2457 33.579C30.3526 33.4722 30.406 33.3547 30.406 33.2264V13.4402C30.406 13.312 30.3526 13.1944 30.2457 13.0876C30.1389 12.9807 30.0214 12.9273 29.8931 12.9273H26.047V16.8804C26.047 17.1775 25.9463 17.4263 25.7449 17.6267C25.5436 17.8271 25.2936 17.9273 24.995 17.9273C24.6964 17.9273 24.4481 17.8271 24.2501 17.6267C24.0521 17.4263 23.9531 17.1775 23.9531 16.8804V12.9273H16.047V16.8804C16.047 17.1775 15.9463 17.4263 15.7449 17.6267C15.5436 17.8271 15.2936 17.9273 14.995 17.9273C14.6964 17.9273 14.4481 17.8271 14.2501 17.6267C14.0521 17.4263 13.9531 17.1775 13.9531 16.8804V12.9273H10.1069C9.97867 12.9273 9.86114 12.9807 9.75431 13.0876C9.64745 13.1944 9.59402 13.312 9.59402 13.4402V33.2264C9.59402 33.3547 9.64745 33.4722 9.75431 33.579C9.86114 33.6859 9.97867 33.7393 10.1069 33.7393ZM16.047 10.8334H23.9531V10.2137C23.9531 9.10471 23.5715 8.16863 22.8083 7.40544C22.0451 6.64224 21.109 6.26064 20 6.26064C18.891 6.26064 17.955 6.64224 17.1918 7.40544C16.4286 8.16863 16.047 9.10471 16.047 10.2137V10.8334Z" fill="#0F0F0F"/>
</g>
</svg>
