<svg width="24" height="24" viewBox="0 0 24 24" fill="none" xmlns="http://www.w3.org/2000/svg">
<mask id="mask0_20_238" style="mask-type:alpha" maskUnits="userSpaceOnUse" x="0" y="0" width="24" height="24">
<rect width="24" height="24" fill="#D9D9D9"/>
</mask>
<g mask="url(#mask0_20_238)">
<path d="M12 14.6769C11.8859 14.6769 11.7727 14.6551 11.6606 14.6115C11.5484 14.5679 11.4506 14.5044 11.3673 14.4211L6.87309 9.92689C6.7282 9.78202 6.65576 9.60639 6.65576 9.39999C6.65576 9.19359 6.7282 9.01795 6.87309 8.87309C7.01795 8.7282 7.19359 8.65576 7.39999 8.65576C7.60639 8.65576 7.78202 8.7282 7.92689 8.87309L12 12.9462L16.0731 8.87309C16.218 8.7282 16.3936 8.65576 16.6 8.65576C16.8064 8.65576 16.982 8.7282 17.1269 8.87309C17.2718 9.01795 17.3442 9.19359 17.3442 9.39999C17.3442 9.60639 17.2718 9.78202 17.1269 9.92689L12.6327 14.4211C12.5391 14.5147 12.4404 14.5807 12.3365 14.6192C12.2327 14.6577 12.1205 14.6769 12 14.6769Z" fill="#2D2E2E"/>
</g>
</svg>
