<svg width="16" height="16" viewBox="0 0 24 24" fill="none" xmlns="http://www.w3.org/2000/svg">
<mask id="mask0_20_220" style="mask-type:alpha" maskUnits="userSpaceOnUse" x="0" y="0" width="24" height="24">
<rect width="24" height="24" fill="#D9D9D9"/>
</mask>
<g mask="url(#mask0_20_220)">
<path d="M3.99997 18.75C3.78747 18.75 3.60936 18.6781 3.46563 18.5343C3.32188 18.3905 3.25 18.2123 3.25 17.9997C3.25 17.7871 3.32188 17.609 3.46563 17.4654C3.60936 17.3218 3.78747 17.25 3.99997 17.25H7.99998C8.21248 17.25 8.39059 17.3219 8.53433 17.4657C8.67808 17.6096 8.74995 17.7877 8.74995 18.0003C8.74995 18.2129 8.67808 18.391 8.53433 18.5346C8.39059 18.6782 8.21248 18.75 7.99998 18.75H3.99997ZM3.99997 6.74998C3.78747 6.74998 3.60936 6.67808 3.46563 6.53428C3.32188 6.39046 3.25 6.21226 3.25 5.99968C3.25 5.78708 3.32188 5.60899 3.46563 5.46541C3.60936 5.32182 3.78747 5.25003 3.99997 5.25003H12C12.2125 5.25003 12.3906 5.32193 12.5343 5.46573C12.6781 5.60955 12.75 5.78775 12.75 6.00033C12.75 6.21293 12.6781 6.39102 12.5343 6.53461C12.3906 6.67819 12.2125 6.74998 12 6.74998H3.99997ZM11.9997 20.75C11.7871 20.75 11.609 20.6781 11.4654 20.5344C11.3218 20.3906 11.25 20.2125 11.25 20V16C11.25 15.7875 11.3219 15.6094 11.4657 15.4656C11.6095 15.3219 11.7877 15.25 12.0003 15.25C12.2129 15.25 12.391 15.3219 12.5346 15.4656C12.6782 15.6094 12.75 15.7875 12.75 16V17.25H20C20.2125 17.25 20.3906 17.3219 20.5344 17.4657C20.6781 17.6096 20.75 17.7877 20.75 18.0003C20.75 18.2129 20.6781 18.391 20.5344 18.5346C20.3906 18.6782 20.2125 18.75 20 18.75H12.75V20C12.75 20.2125 12.6781 20.3906 12.5343 20.5344C12.3904 20.6781 12.2122 20.75 11.9997 20.75ZM7.99965 14.75C7.78705 14.75 7.60896 14.6781 7.46537 14.5344C7.32179 14.3906 7.25 14.2125 7.25 14V12.75H3.99997C3.78747 12.75 3.60936 12.6781 3.46563 12.5343C3.32188 12.3905 3.25 12.2123 3.25 11.9997C3.25 11.7871 3.32188 11.609 3.46563 11.4654C3.60936 11.3218 3.78747 11.25 3.99997 11.25H7.25V10C7.25 9.78751 7.3219 9.60938 7.4657 9.46563C7.60952 9.3219 7.78772 9.25003 8.0003 9.25003C8.2129 9.25003 8.39099 9.3219 8.53458 9.46563C8.67816 9.60938 8.74995 9.78751 8.74995 10V14C8.74995 14.2125 8.67805 14.3906 8.53425 14.5344C8.39043 14.6781 8.21223 14.75 7.99965 14.75ZM12 12.75C11.7875 12.75 11.6094 12.6781 11.4656 12.5343C11.3219 12.3905 11.25 12.2123 11.25 11.9997C11.25 11.7871 11.3219 11.609 11.4656 11.4654C11.6094 11.3218 11.7875 11.25 12 11.25H20C20.2125 11.25 20.3906 11.3219 20.5344 11.4657C20.6781 11.6095 20.75 11.7877 20.75 12.0003C20.75 12.2129 20.6781 12.391 20.5344 12.5346C20.3906 12.6782 20.2125 12.75 20 12.75H12ZM15.9997 8.74998C15.7871 8.74998 15.609 8.67811 15.4654 8.53438C15.3218 8.39063 15.25 8.21251 15.25 8.00001V4.00001C15.25 3.78751 15.3219 3.60938 15.4657 3.46563C15.6095 3.3219 15.7877 3.25003 16.0003 3.25003C16.2129 3.25003 16.391 3.3219 16.5346 3.46563C16.6782 3.60938 16.75 3.78751 16.75 4.00001V5.25003H20C20.2125 5.25003 20.3906 5.32193 20.5344 5.46573C20.6781 5.60955 20.75 5.78775 20.75 6.00033C20.75 6.21293 20.6781 6.39102 20.5344 6.53461C20.3906 6.67819 20.2125 6.74998 20 6.74998H16.75V8.00001C16.75 8.21251 16.6781 8.39063 16.5343 8.53438C16.3904 8.67811 16.2122 8.74998 15.9997 8.74998Z" fill="#2D2E2E"/>
</g>
</svg>
