<svg width="40" height="40" viewBox="0 0 40 40" fill="none" xmlns="http://www.w3.org/2000/svg">
<mask id="mask0_357_1685" style="mask-type:alpha" maskUnits="userSpaceOnUse" x="0" y="0" width="40" height="40">
<rect width="40" height="40" fill="#D9D9D9"/>
</mask>
<g mask="url(#mask0_357_1685)">
<path d="M11.3311 24.0705C11.1381 23.8475 11.037 23.5961 11.0277 23.3162C11.0184 23.0363 11.1196 22.7906 11.3311 22.5791L19.0864 14.8237C19.2239 14.6863 19.3687 14.5865 19.5207 14.5246C19.6728 14.4626 19.8325 14.4316 19.9999 14.4316C20.1779 14.4316 20.3418 14.464 20.4913 14.5288C20.6409 14.5937 20.7816 14.6919 20.9133 14.8237L28.6858 22.5961C28.8859 22.7963 28.986 23.0392 28.986 23.3248C28.986 23.6104 28.8802 23.8589 28.6687 24.0705C28.4572 24.282 28.2086 24.3878 27.923 24.3878C27.6374 24.3878 27.3888 24.282 27.1773 24.0705L19.9999 16.8931L12.8225 24.0705C12.611 24.282 12.3653 24.3849 12.0853 24.3792C11.8055 24.3735 11.554 24.2706 11.3311 24.0705Z" fill="#217076"/>
</g>
</svg>
