<svg width="40" height="40" viewBox="0 0 40 40" fill="none" xmlns="http://www.w3.org/2000/svg">
<mask id="mask0_357_1691" style="mask-type:alpha" maskUnits="userSpaceOnUse" x="0" y="0" width="40" height="40">
<rect width="40" height="40" fill="#D9D9D9"/>
</mask>
<g mask="url(#mask0_357_1691)">
<path d="M20 24.5578C19.844 24.5578 19.6857 24.5271 19.5251 24.4659C19.3645 24.4046 19.2183 24.3081 19.0865 24.1763L11.3312 16.421C11.1197 16.2095 11.0139 15.9581 11.0139 15.6668C11.0139 15.3755 11.1197 15.124 11.3312 14.9125C11.5427 14.701 11.7885 14.5952 12.0684 14.5952C12.3483 14.5952 12.594 14.701 12.8055 14.9125L20 22.107L27.1945 14.9125C27.406 14.701 27.6546 14.5952 27.9402 14.5952C28.2258 14.5952 28.4743 14.701 28.6859 14.9125C28.8974 15.124 29.0032 15.3726 29.0032 15.6582C29.0032 15.9438 28.8974 16.1924 28.6859 16.4039L20.9135 24.1763C20.776 24.3138 20.6339 24.4117 20.4872 24.4701C20.3404 24.5285 20.1781 24.5578 20 24.5578Z" fill="#217076"/>
</g>
</svg>
